<svg width="83" height="82" viewBox="0 0 83 82" fill="none" xmlns="http://www.w3.org/2000/svg">
<path d="M31.2668 10.2019H27.864V13.598H31.2668V10.2019Z" fill="#B3B3B3"/>
<path fill-rule="evenodd" clip-rule="evenodd" d="M20.9876 13.5981H24.3904V16.9943H20.9876V13.5981ZM10.7793 23.8572H14.1821V20.4611H10.7793V23.8572ZM14.1821 27.2534H10.7793V30.6495H14.1821V27.2534ZM10.7793 27.2534V23.8572H7.3765V27.2534H10.7793ZM17.5848 23.8572V27.2534V30.6495V34.0456V37.4417H14.1821V40.8378H17.5848V44.234H14.1821V40.8378H10.7793V37.4417H7.3765V34.1164H3.90283V30.7202H7.30561V27.3241H3.90283V23.928H7.30561V20.5319H10.7084V17.1358H14.1112V13.5981H17.5139V16.9943H14.1112V20.3904H17.5139C17.5848 20.4611 17.5848 23.8572 17.5848 23.8572ZM14.1821 37.5125V34.1164H10.7793V37.5125H14.1821ZM10.7793 34.1164V30.7202H7.3765V34.1164H10.7793Z" fill="white"/>
<path fill-rule="evenodd" clip-rule="evenodd" d="M68.9101 13.598H72.3838V16.9941H68.9101H65.5073V13.598V10.2019H68.9101V13.598Z" fill="white"/>
<path fill-rule="evenodd" clip-rule="evenodd" d="M20.9876 71.686H24.3904H27.7931H31.1959H34.5987H38.0015H41.4043H44.807V75.0821H41.4043H38.0015H34.5987H31.1959H27.7931H24.4613H21.0585V71.686H20.9876ZM31.2668 13.5983H34.6696V16.9944H38.0724V20.3905V23.7866H41.4752V27.1827V30.5789V33.975V37.3711H38.0724V40.7672V44.1633H41.4752V47.5594H44.8779V50.9556H48.2807V54.3517H51.6835V57.7478H55.0863V61.1439H58.489V64.54H61.8918V67.9361H65.2946V71.3323H68.6974H72.1002H75.5029H78.9057V67.9361V64.54V61.1439V57.7478V54.3517V50.9556V47.5594V44.1633V40.7672V37.3711V34.1165V30.7204V27.3242V23.9281V20.532H75.5029H72.1002H68.6974H65.2946H61.8918V17.1359H65.2946H68.6974H72.1002H75.5029V13.5983H72.1002V10.2021H68.6974V6.80603H65.2946V3.40991H68.6974V6.80603H72.1002V10.2021H75.5029V13.5983H78.9057V16.9944H82.3085V20.3905V23.7866V27.1827V30.5789V33.975V37.3711V40.7672V44.1633V47.5594V50.9556V54.3517V57.7478V61.1439V64.54V67.9361V71.3323V74.7284H78.9057H75.5029H72.1002H68.6974H65.2946V78.1245H61.8918V81.5206H58.489H55.0863H51.6835V78.1245H55.0863H58.489H61.8918V74.7284V71.3323V67.9361H58.489V64.54H55.0863V61.1439H51.6835V57.7478H48.2807V54.3517H44.8779V50.9556H41.4752V47.5594H38.0724V44.1633H34.6696V47.5594H31.2668V50.9556H27.864H24.4613H21.0585H17.6557H14.2529V47.5594H17.6557H21.0585H24.4613H27.864H31.2668V44.1633H34.6696V40.7672V37.3711H38.0724V34.1165V30.7204V27.3242V23.9281H34.6696V20.532V17.1359H31.2668V13.5983Z" fill="black"/>
<path d="M27.864 20.4609H24.4612V23.8571H27.864V20.4609Z" fill="#00FFFF"/>
<path fill-rule="evenodd" clip-rule="evenodd" d="M51.8253 20.4609H55.2281V23.8571H51.8253H48.4225H45.0197H41.6169V20.4609H45.0197H48.4225H51.8253ZM51.8253 51.1675H55.2281H58.6308H62.0336H65.4364H68.8392V54.5636H65.4364H62.0336H58.6308H55.2281H51.8253V51.1675ZM65.5073 30.6493H68.9101V34.0454H65.5073H62.1045H58.7017H55.2989H51.8962H48.4934H45.0906V30.6493H48.4934H51.8962H55.2989H58.7017H62.1045H65.5073ZM65.5073 37.5123H68.9101V40.9084H65.5073H62.1045H58.7017H55.2989H51.8962H48.4934H45.0906H41.6878V37.5123H45.0906H48.4934H51.8962H55.2989H58.7017H62.1045H65.5073ZM65.5073 44.3753H68.9101V47.7714H65.5073H62.1045H58.7017H55.2989H51.8962H48.4934H45.0906V44.3753H48.4934H51.8962H55.2989H58.7017H62.1045H65.5073Z" fill="#B3B3B3"/>
<path fill-rule="evenodd" clip-rule="evenodd" d="M24.4612 68.219V71.6152H21.0585V68.219V64.8229V61.4268V58.0307V54.6346V51.2384H24.4612H27.864V54.6346H31.2668V58.0307H34.6696V61.4268H31.2668V58.0307H27.864V54.6346H24.4612V58.0307V61.4268V64.8229V68.219ZM44.9488 34.1164V37.5125H41.546V40.9086V44.3047H44.9488V47.7008H48.3516V51.0969H51.7544V54.4931H55.1571V57.8892H58.5599V61.2853H61.9627V64.6814H65.3655V68.0775H61.9627V64.6814H58.5599V61.2853H55.1571V57.8892H51.7544V54.4931H48.3516V51.0969H44.9488V47.7008H41.546V44.3047H38.1432V40.9086V37.5125H41.546V34.1164V30.7202V27.3241V23.928H38.1432V20.5319H41.546V23.928H44.9488V27.3241V30.7202C44.9488 30.6495 44.9488 34.1164 44.9488 34.1164ZM27.864 34.1164H31.2668H34.6696V37.5125H31.2668H27.864H24.4612V34.1164H27.864ZM24.4612 3.33904V6.73516V10.1313H27.864V13.5981H24.4612H21.0585H17.6557H14.2529V16.9943H10.8501H7.44734V20.3904V23.7865H3.90278V27.1826V30.5787V33.9748V37.371H7.30556V40.7671V44.1632H10.7083H14.1111V47.5593H10.7083H7.30556V44.1632H3.90278V40.7671V37.371H0.5V34.1164V30.7202V27.3241V23.928H3.90278V20.5319V17.1358H7.30556V13.5981H10.7083H14.1111V10.202H17.5139H20.9167V6.80591V3.40979V0.0136719H24.3195H27.7222H31.125H34.5278H37.9306H41.3333H44.7361H48.1389H51.5417H54.9445H58.3472H61.75H65.1528V3.40979V6.80591H68.5556V10.202H71.9584V13.5981H75.3611V16.9943H71.9584V13.5981H68.5556V10.202H65.1528V13.5981V16.9943H61.75V13.5981V10.202V6.80591V3.40979H58.3472H54.9445H51.5417H48.1389H44.7361H41.3333H37.9306H34.5278H31.125H27.7222H24.4612V3.33904ZM24.4612 40.9086H27.864H31.2668V44.3047H27.864H24.4612V40.9086Z" fill="#666666"/>
<path fill-rule="evenodd" clip-rule="evenodd" d="M75.7864 34.1164V37.5126V40.9087V44.3755V47.7717V51.1678V54.5639V58.0308V61.4269V64.823V68.2191H72.3836H68.91H65.5072V64.823H62.1044V61.4269H58.6307V58.0308H55.228V54.5639H58.6307H62.1044H65.5072H68.91V51.1678H65.5072H62.1044H58.6307H55.228H51.8252H48.4224V47.7717H51.8252H55.228H58.6307H62.1044H65.5072H68.91V44.3755H65.5072H62.1044H58.6307H55.228H51.8252H48.4224H44.9487H41.546V40.9087H44.9487H48.4224H51.8252H55.228H58.6307H62.1044H65.5072H68.91V37.5126H65.5072H62.1044H58.6307H55.228H51.8252H48.4224H44.9487V34.1164H48.4224H51.8252H55.228H58.6307H62.1044H65.5072H68.91V30.6496H65.5072H62.1044H58.6307H55.228H51.8252H48.4224H44.9487V27.2534V23.8573H48.4224H51.8252H55.228V20.4612H51.8252H48.4224H44.9487H41.546H38.1432V16.9943H34.7404V13.5982H31.2667V10.2021H27.864H24.4612V6.80598V3.33911H27.864H31.2667H34.7404H38.1432H41.546H44.9487H48.4224H51.8252H55.228H58.6307H62.1044V6.80598V10.2021V13.5982V16.9943V20.4612H65.5072H68.91H72.3836H75.7864V23.8573V27.2534V30.6496V34.1164Z" fill="white"/>
<path d="M10.7084 40.9087H7.30566V44.3048H10.7084V40.9087Z" fill="#B3B3B3"/>
<path fill-rule="evenodd" clip-rule="evenodd" d="M20.9876 44.3755H24.3904V47.7716H20.9876V44.3755ZM7.30561 16.9943H10.7084V20.3904H14.1112V16.9943H17.5139V20.3904H14.1112V23.7865H10.7084V27.1826H14.1112V30.5787H10.7084V33.9749H14.1112V37.371H17.5139V40.7671H14.1112V44.1632H17.5139V47.5593H14.1112V44.1632H10.7084V40.7671H7.30561V37.371H3.90283V34.1164H7.30561V30.7202H3.90283V27.3241H7.30561V23.928H10.7084V20.5319H7.30561V16.9943ZM10.7793 27.2534H7.3765V30.6495H10.7793V27.2534ZM10.7793 34.1164H7.3765V37.5125H10.7793V34.1164ZM10.7793 37.5125V40.9086H14.1821V37.5125H10.7793ZM31.2668 20.4611H34.6696V23.8572H31.2668V27.2534H34.6696V30.6495H31.2668V34.0456H27.8641V30.6495H24.4613V34.0456H21.0585V30.6495H24.4613V27.2534H21.0585V23.8572H24.4613V27.2534H27.8641V23.8572H31.2668V20.4611H27.8641V17.065H24.4613V20.4611H21.0585V17.065H24.4613V13.5981H27.8641V16.9943H31.2668V20.4611ZM31.2668 27.2534H27.8641V30.6495H31.2668V27.2534ZM20.9876 37.5125H24.3904V40.9086H20.9876V37.5125ZM27.8641 37.5125H31.2668V40.9086H27.8641V37.5125Z" fill="#00FFFF"/>
<path fill-rule="evenodd" clip-rule="evenodd" d="M24.4611 44.3755H27.8639V47.7716H24.4611V44.3755H21.0583V47.7716H17.6555V44.3755V40.9793V37.5832V34.1164V30.7202V27.3241V23.928V20.5319V17.1358V13.5981H21.0583V16.9943V20.3904H24.4611V16.9943H27.8639V20.3904H31.2666V23.7865H34.6694V27.1826H31.2666V30.5787H34.6694V33.9749H31.2666V30.5787H27.8639V33.9749H24.4611V37.371H27.8639V40.7671H24.4611V44.3755ZM20.9874 40.9086H24.3902V37.5125H20.9874V40.9086ZM20.9874 34.1164H24.3902V30.7202H20.9874V34.1164ZM20.9874 27.2534H24.3902V23.8572H20.9874V27.2534ZM24.4611 27.2534V30.6495H27.8639V27.2534H24.4611ZM24.4611 20.4611V23.8572H27.8639V20.4611H24.4611ZM27.8639 23.8572V27.2534H31.2666V23.8572H27.8639Z" fill="#B3B3B3"/>
<path d="M38.1433 44.3755H34.7405V47.7716H38.1433V44.3755Z" fill="#666666"/>
<path d="M34.6694 47.7715H31.2666V51.1676H34.6694V47.7715Z" fill="#B3B3B3"/>
<path d="M38.1433 47.7715H34.7405V51.1676H38.1433V47.7715Z" fill="#666666"/>
<path d="M31.2668 51.1677H27.864V54.5638H31.2668V51.1677Z" fill="#B3B3B3"/>
<path d="M38.1433 51.1677H34.7405V54.5638H38.1433V51.1677Z" fill="#B3B3B3"/>
<path fill-rule="evenodd" clip-rule="evenodd" d="M34.7404 64.8231H38.1432V68.2192H34.7404H31.2667H27.864H24.4612V64.8231V61.427V58.0308V54.564H27.864V58.0308H31.2667V61.427H34.7404V64.8231Z" fill="white"/>
<path fill-rule="evenodd" clip-rule="evenodd" d="M24.4612 68.2191H27.864H31.2667H34.6695H38.0723H41.4751V71.6152H38.0723H34.6695H31.2667H27.864H24.4612V68.2191ZM79.1892 68.2191V71.6152H75.7864H72.3836H68.9809H65.5781V68.2191H68.9809H72.3836H75.7864V64.823V61.4269V58.0308V54.6347V51.2385V47.8424V44.4463V41.0502V37.6541V34.1165V30.7203V27.3242V23.9281V20.532H79.1892V23.9281V27.3242V30.7203V34.1165V37.5126V40.9087V44.3048V47.7009V51.097V54.4932V57.8893V61.2854V64.6815V68.2191Z" fill="#B3B3B3"/>
<path fill-rule="evenodd" clip-rule="evenodd" d="M48.4225 75.082H51.8252V78.4781H48.4225V75.082H45.0197V71.6859H41.6169V68.2898H38.2141V64.8937H34.8114V61.4976H38.2141V64.8937H41.6169V68.2898H45.0197V71.6859H48.4225V75.082ZM27.864 44.3755H31.2668V40.9793V37.5832H34.6696V34.1164V30.7202V27.3241V23.928H38.0723V27.3241V30.7202V34.1164V37.5125H34.6696V40.9086V44.3047H31.2668V47.7008H27.864V44.3755ZM27.864 13.5981H31.2668V16.9943H34.6696V20.3904H31.2668V16.9943H27.864V13.5981Z" fill="#00A3A3"/>
<path fill-rule="evenodd" clip-rule="evenodd" d="M51.8254 75.082H55.2281V78.4781H51.8254V75.082H48.4226V71.6859H45.0198V68.2898H41.617V64.8937H38.2142V61.4976H34.8115V58.1014H31.4087V54.7053H34.8115V58.1014H38.2142V61.4976H41.617V64.8937H45.0198V68.2898H48.4226V71.6859H51.8254V75.082ZM62.1046 75.082V78.4781H58.7018V75.082V71.6859H55.299V68.2898H51.8962V64.8937H48.4935V61.4976H45.0907V58.1014H41.6879V54.7053H38.2851V51.3092V47.9131H41.6879V51.3092H45.0907V54.7053H48.4935V58.1014H51.8962V61.4976H55.299V64.8937H58.7018V68.2898H62.1046V71.6859V75.082Z" fill="#3600F8"/>
<path fill-rule="evenodd" clip-rule="evenodd" d="M58.6306 75.082V78.4782H55.2278V75.082H51.8251V71.6859H48.4223V68.2191H44.9486V64.8229H41.5458V61.4268H38.143V58.0307H34.7403V54.5638H31.2666V51.1677H34.7403V54.5638H38.143H41.5458V58.0307H44.9486V61.4268H48.4223V64.8229H51.8251V68.2191H55.2278V71.6859H58.6306V75.082Z" fill="#00FFFF"/>
</svg>
