<svg width="77" height="83" viewBox="0 0 77 83" fill="none" xmlns="http://www.w3.org/2000/svg">
<path fill-rule="evenodd" clip-rule="evenodd" d="M50.9784 25.9649H56.0117V31.0327H50.9784V36.2061V41.2739H45.9451V46.3416H40.8069H35.7736H30.7403V41.2739H25.707V36.2061V31.0327H20.5688V25.9649H25.707V20.8971V15.7238H30.7403V10.656H35.7736V15.7238H40.8069H45.9451V20.8971H50.9784V25.9649Z" fill="#EDE7A8"/>
<path fill-rule="evenodd" clip-rule="evenodd" d="M25.707 46.3418H30.7403V51.4096H35.7736V56.583V61.6507H30.7403V66.7185V71.7863V76.9597H25.707H20.5688H15.5355H10.5022H5.36401V71.7863V66.7185V61.6507V56.583H10.5022V51.4096H15.5355H20.5688H25.707V46.3418Z" fill="white"/>
<path fill-rule="evenodd" clip-rule="evenodd" d="M35.7737 46.3418H40.807V51.4096H35.7737V46.3418ZM40.807 71.7863V76.8541H35.7737V71.7863V66.7185V61.6507H40.807V66.7185V71.7863Z" fill="#FF0000"/>
<path fill-rule="evenodd" clip-rule="evenodd" d="M45.9451 46.3418H50.9784V51.4096H56.0117H61.045H66.1831V56.583H71.2165V61.6507V66.7185V71.7863V76.9597H66.1831H61.045H56.0117H50.9784H45.9451V71.7863V66.7185V61.6507H40.8069V56.583V51.4096H45.9451V46.3418Z" fill="white"/>
<path fill-rule="evenodd" clip-rule="evenodd" d="M76.2499 76.9596V82.0274H71.2166H66.1833H61.15H56.1166H51.0833H46.05H41.0167H35.9834H30.9501H25.9168H20.8835H15.8502H10.8169H5.78356H0.750244V76.9596V71.8918V66.824V61.7562V56.6884H5.78356V51.6206H10.8169V46.5529H15.8502H20.8835H25.9168V41.4851H20.8835V36.4173V31.3495H15.8502V26.2817V21.214V16.1462V11.0784H20.8835V6.01062H25.9168V0.520508H30.9501H35.9834H41.0167H46.05H51.0833V5.58828H56.1166V10.6561H61.15V15.7238V20.7917V25.8594V30.9272H56.1166V35.995V41.0628H51.0833V46.1306H56.1166H61.15H66.1833V51.1983H71.2166V56.2661H76.2499V61.3339V66.4017V71.4695V76.9596ZM40.807 46.3417H45.8403V41.2739H50.8736V36.2061V31.1384H55.9069V26.0706H50.8736V21.0028H45.8403V15.935H40.807H35.7737V10.8672H30.7404V15.935H25.7071V21.0028V26.0706H20.6738V31.1384H25.7071V36.2061V41.2739H30.7404V46.3417H35.7737V51.4095H40.807V46.3417ZM45.9452 46.3417V51.4095H40.9119V56.4773V61.545H45.9452V66.6128V71.6806V76.7484H50.9785H56.0118H61.0451H66.0784H71.1117V71.6806V66.6128V61.545V56.4773H66.0784V51.4095H61.0451H56.0118H50.9785V46.3417H45.9452ZM25.7071 46.3417V51.4095H20.6738H15.6404H10.6071V56.4773H5.57383V61.545V66.6128V71.6806V76.7484H10.6071H15.6404H20.6738H25.7071H30.7404V71.6806V66.6128V61.545H35.7737V56.4773V51.4095H30.7404V46.3417H25.7071ZM35.7737 76.9596H40.807V71.8918V66.824V61.7562H35.7737V66.824V71.8918V76.9596Z" fill="black"/>
</svg>
