<svg width="85" height="83" viewBox="0 0 85 83" fill="none" xmlns="http://www.w3.org/2000/svg">
<path fill-rule="evenodd" clip-rule="evenodd" d="M45.9053 20.0034H49.1745H52.4437V23.2529V26.5023H49.1745H45.9053V23.2529V20.0034ZM72.2634 23.2529V26.5023H68.9261H65.6569V23.2529V20.0034H68.9261H72.1953V23.2529H72.2634ZM62.3876 23.2529V26.5023H59.1184H55.8492V23.2529V20.0034H59.1184H62.3876V23.2529Z" fill="#FF0000"/>
<path fill-rule="evenodd" clip-rule="evenodd" d="M82.0715 20.0036V23.253V26.5025V29.7519V33.0013H78.8022V36.2508H75.533V39.5002H72.2638H68.9264V42.7497H65.6572H62.388V45.9991H59.1187H55.8495H52.5803H49.3111H46.0418H42.7726V42.7497H46.0418V39.5002H49.3111V36.2508H46.0418H42.7726V33.0013H39.5034V29.7519H36.2341V26.5025V23.253V20.0036V16.7541V13.5047H39.5034V10.2553H42.7726V7.00582H46.0418H49.3111V3.75635H52.5803H55.8495H59.1187H62.388H65.6572V7.00582H68.9264H72.1957V10.2553H75.4649V13.5047H78.7341V16.7541H82.0034V20.0036H82.0715ZM72.2638 26.5025V23.253V20.0036H68.9264H65.6572V23.253V26.5025H68.9264H72.2638ZM62.388 20.0036H59.1187H55.8495V23.253V26.5025H59.1187H62.388V23.253V20.0036ZM52.5122 20.0036H49.2429H45.9737V23.253V26.5025H49.2429H52.5122V23.253V20.0036Z" fill="white"/>
<path fill-rule="evenodd" clip-rule="evenodd" d="M3.20117 33.0688H6.47039H9.73964H13.0089H16.2781H19.5473H22.8165H26.0858H29.355H32.6243H35.8935H39.1627V36.3183V39.5677V42.8171V46.0666V49.3161H42.4319H45.7012V52.5655H48.9704H52.2396V49.3837H55.5088H58.7781H62.0473V46.1343H65.3166H68.5858V49.3837V52.6332V55.8826V59.1321V62.3815V65.6309V68.8804V72.1298V75.3793V78.6287H65.3166H62.0473H58.7781H55.5088H52.2396H48.9704H45.7012H42.4319H39.1627H35.8935H32.6243H29.355H26.0858H22.8165H19.5473H16.2781H13.077H9.80775H6.53851H3.26928V75.3793V72.1298V69.0158V65.7663V62.5169V59.2674V56.018V52.7686V49.3837V46.1343V42.8849H6.53851V39.6354H3.26928V36.386V33.0688H3.20117ZM45.9055 52.6332H42.6363H39.367V55.8826H42.6363H45.9055V52.6332ZM39.367 55.9503H36.0978H32.8286V59.1998H36.0978H39.367V55.9503ZM32.7605 55.9503V52.7009H29.4912H26.222V55.9503H29.4912H32.7605ZM26.222 52.6332V49.3837H22.9528H19.6835V52.6332H22.9528H26.222ZM19.6154 49.3837V46.1343H16.3462H13.077V49.3837H16.3462H19.6154ZM13.077 46.1343V42.8849H9.80775H6.53851V46.1343H9.80775H13.077Z" fill="#00FFFF"/>
<path d="M42.6362 36.3184H39.3669V39.5678H42.6362V36.3184Z" fill="#00FFFF"/>
<path d="M42.6362 39.5679H39.3669V42.8173H42.6362V39.5679Z" fill="#00FFFF"/>
<path fill-rule="evenodd" clip-rule="evenodd" d="M72.2636 78.7643V82.0137H68.9263H65.6571H62.3878H59.1186H55.8493H52.5801H49.3109H46.0417H42.7724H39.5032H36.234H32.9648H29.6955H26.4263H23.157H19.8878H16.6186H13.0769H9.80771H6.53846H3.26924H0V78.7643V75.5148V72.2654V69.0159V65.7665V62.517V59.2676V56.0181V52.7687V49.3839V46.1344V42.885V39.6355V36.3861V33.1367V29.7518H3.26924H6.53846H9.80771H13.0769H16.3462H19.6154H22.8846H26.1539H29.4231H32.6923V26.5024V23.253V20.0035V16.754V13.5046H35.9615V10.2552H39.2308V7.00574H42.5V3.75627H45.7692H49.0385V0.506836H52.3077H55.5769H58.8462H62.1154H65.3846V3.75627H68.6538H71.9231V7.00574H75.1923V10.2552H78.4615V13.5046H81.7308V16.754H85V20.0035V23.253V26.5024V29.7518V33.0013H81.7308V36.2507H78.4615V39.5002H75.1923V42.7496H71.9231V45.999V49.2485V52.4979V55.7474V58.9968V62.2462V65.4957V68.7451V71.9946V75.244V78.7643H72.2636ZM65.6571 42.8173H68.9263V39.5678H72.1955H75.4647V36.3184H78.734V33.069H82.0032V29.7518V26.5024V23.253V20.0035V16.754H78.734V13.5046H75.4647V10.2552H72.1955V7.00574H68.9263H65.6571V3.75627H62.3878H59.1186H55.8493H52.5801H49.3109V7.00574H46.0417H42.7724V10.2552H39.5032V13.5046H36.234V16.754V20.0035V23.253V26.5024V29.7518H39.5032V33.0013H42.7724V36.2507H46.0417H49.3109V39.5002H46.0417V42.7496H42.7724V45.999H46.0417H49.3109H52.5801H55.8493H59.1186H62.3878V42.7496H65.6571V42.8173ZM68.9263 46.1344H65.6571H62.3878V49.3839H59.1186H55.8493H52.5801V52.6333H49.3109H46.0417V55.8827H42.7724H39.5032V59.1322H36.234H32.9648V55.8827H29.6955H26.4263V52.6333H23.157H19.8878V49.3839H16.6186H13.0769V46.1344H9.80771H6.53846V42.885H3.26924V46.1344V49.3839V52.6333V55.8827V59.1322V62.3816V65.6311V68.8805V72.1299V75.3794V78.6289H6.53846H9.80771H13.0769H16.3462H19.6154H22.8846H26.1539H29.4231H32.6923H35.9615H39.2308H42.5H45.7692H49.0385H52.3077H55.5769H58.8462H62.1154H65.3846H68.6538V75.3794V72.1299V69.0159V65.7665V62.517V59.2676V56.0181V52.7687V49.3839V46.1344H68.9263ZM3.20113 39.5678H6.47035V42.8173H9.73959H13.0088V46.0667H16.2781H19.5473V49.3162H22.8165H26.0857V52.5656H29.355H32.6242V55.8151H35.8934H39.1627V52.5656H42.4319H45.7011V49.3839H42.4319H39.1627V46.1344V42.885H42.4319V39.6355V36.3861H39.1627V33.1367H35.8934H32.6242H29.355H26.0857H22.8165H19.5473H16.2781H13.0769H9.80771H6.53846H3.26924V36.3861V39.5678H3.20113Z" fill="black"/>
</svg>
