<svg width="97" height="82" viewBox="0 0 97 82" fill="none" xmlns="http://www.w3.org/2000/svg">
<path d="M48.5002 0H44.7754V3.70135H48.5002V0Z" fill="#00381C"/>
<path d="M44.7753 3.70142H41.0505V7.40276H44.7753V3.70142Z" fill="#00381C"/>
<path d="M41.0505 7.47974H37.3257V11.1811H41.0505V7.47974Z" fill="#00381C"/>
<path fill-rule="evenodd" clip-rule="evenodd" d="M44.7753 7.47974H48.5777V11.1811H52.3025V14.8824H56.0273V18.5838H59.7521V22.3623H63.5545V26.0636H67.2793V29.765H71.0041V33.4663H74.7289V37.2448H78.5313V40.9461H82.2561V44.6475H85.9809V48.426H89.7833V52.1273V55.8287H85.9809V59.53H82.2561H78.5313V55.8287V52.1273V48.426H74.7289V44.6475V40.9461H71.0041V37.2448V33.4663H67.2793V29.765H63.5545H59.7521H56.0273H52.3025H48.5777H44.7753H41.0505H37.3257H33.5233H29.7985H26.0737V26.0636H29.7985V22.3623H33.5233V18.5838H37.3257V14.8824H41.0505V11.1811H44.7753V7.47974Z" fill="#33CC33"/>
<path d="M37.2482 11.1812H33.5234V14.8825H37.2482V11.1812Z" fill="#00381C"/>
<path d="M33.5234 14.8826H29.7986V18.5839H33.5234V14.8826Z" fill="#00381C"/>
<path d="M22.2712 18.584H18.5464V22.2854H22.2712V18.584Z" fill="#B3B3B3"/>
<path d="M29.7985 18.584H26.0737V22.2854H29.7985V18.584Z" fill="#00381C"/>
<path fill-rule="evenodd" clip-rule="evenodd" d="M67.2792 18.5838H71.004H74.7288H78.4536V22.2852H74.7288H71.004H67.2792V18.5838ZM18.5464 11.1812H22.2712H25.996H29.7208H33.4456V14.8825H29.7984H26.0736H22.3488H18.624V18.5838H14.8992V22.2852V25.9866V29.6879H11.1744V33.3893H7.4496H3.7248V37.0906V40.792V44.4934H7.4496V48.1947V51.8961V55.5974H11.1744V59.2988V63.0001V66.7015H14.8992V70.4028V74.1042V77.8056H11.1744V74.4126V70.7113V67.01H7.4496V63.3086V59.6072V55.9059H3.7248V52.2045V48.5032V44.8018H0V41.1004V37.3991V33.6977H3.7248V29.9964H7.4496H11.1744V26.295V22.5937V18.8923H14.8992V15.191H18.624V11.1812H18.5464Z" fill="#666666"/>
<path d="M26.0737 22.3623H22.3489V26.0637H26.0737V22.3623Z" fill="#00381C"/>
<path d="M22.2712 26.0637H18.5464V29.7651H22.2712V26.0637Z" fill="#00381C"/>
<path fill-rule="evenodd" clip-rule="evenodd" d="M22.3489 26.0638H26.0737V22.3624H29.7985V18.5839H33.5233V14.8826H37.3257V11.1812H41.0505V7.4799H44.7753V3.70142H48.5777V7.4799H52.3025V11.1812H56.0273V14.8826H59.7521V18.5839H63.5545V22.3624H67.2793V26.0638H71.0041V29.7651H74.7289V33.4665H78.5313V37.245H82.2561V40.9463H85.9809V44.6477H89.7833V48.4261H93.5081V52.1275H89.7833V48.4261H85.9809V44.6477H82.2561V40.9463H78.5313V37.245H74.7289V33.4665H71.0041V29.7651H67.2793V26.0638H63.5545V22.3624H59.7521V18.5839H56.0273V14.8826H52.3025V11.1812H48.5777V7.4799H44.7753V11.1812H41.0505V14.8826H37.3257V18.5839H33.5233V22.3624H29.7985V26.0638H26.0737V29.7651H22.3489V26.0638Z" fill="#006633"/>
<path fill-rule="evenodd" clip-rule="evenodd" d="M78.5312 26.0636V29.7649H74.8064V26.0636H71.0816V22.3622H74.8064H78.5312V26.0636ZM18.5464 22.3622H22.2712V18.6609H25.996V22.3622H22.2712V26.0636H18.5464V22.3622Z" fill="#FFFF00"/>
<path fill-rule="evenodd" clip-rule="evenodd" d="M11.0967 29.7651H14.8215H18.5463H22.3487H26.0735H29.7983H33.5231H37.3255H41.0503H44.7751H48.5775H52.3023H56.0271H59.7519H63.5543H67.2791V33.4665H63.5543H59.7519H56.0271H52.3023H48.5775H44.7751H41.0503H37.3255H33.5231H29.7983H26.0735H22.3487H18.5463H14.8215H11.0967V29.7651Z" fill="#B3B3B3"/>
<path fill-rule="evenodd" clip-rule="evenodd" d="M82.2563 29.765V33.4664H78.5315V29.765V26.0637V22.3623H82.2563V26.0637V29.765Z" fill="#7B8330"/>
<path fill-rule="evenodd" clip-rule="evenodd" d="M3.56958 33.4665H7.29438H11.0192H14.744H18.4688H22.1936H25.9184H29.6432H33.368H37.0928H40.8176H44.5424H48.2672H51.992H55.7168H59.4416H63.1664H66.8912V37.1678H63.1664H59.4416H55.7168H52.3024H48.5776H44.8528H41.128H37.4032H33.6784H29.7984H26.0736H22.3488H18.624H14.8992H11.1744H7.44958H3.72478V33.4665H3.56958ZM26.0736 14.8826H29.7984V18.5839H26.0736H22.3488H18.624V22.2853V25.9867V29.688H14.8992V25.9867V22.2853V18.5839H18.624V14.8826H22.3488H26.0736Z" fill="white"/>
<path d="M7.29438 37.2449H3.56958V40.9462H7.29438V37.2449Z" fill="#B3B3B3"/>
<path d="M11.0966 37.2449H7.37183V40.9462H11.0966V37.2449Z" fill="#FFFF00"/>
<path d="M14.8215 37.2449H11.0967V40.9462H14.8215V37.2449Z" fill="#B3B3B3"/>
<path d="M18.5463 37.2449H14.8215V40.9462H18.5463V37.2449Z" fill="#FFFF00"/>
<path d="M22.2712 37.2449H18.5464V40.9462H22.2712V37.2449Z" fill="#B3B3B3"/>
<path d="M26.0737 37.2449H22.3489V40.9462H26.0737V37.2449Z" fill="#FFFF00"/>
<path d="M29.7985 37.2449H26.0737V40.9462H29.7985V37.2449Z" fill="#B3B3B3"/>
<path d="M33.5234 37.2449H29.7986V40.9462H33.5234V37.2449Z" fill="#FFFF00"/>
<path d="M37.2482 37.2449H33.5234V40.9462H37.2482V37.2449Z" fill="#B3B3B3"/>
<path d="M41.0505 37.2449H37.3257V40.9462H41.0505V37.2449Z" fill="#FFFF00"/>
<path d="M44.7753 37.2449H41.0505V40.9462H44.7753V37.2449Z" fill="#B3B3B3"/>
<path d="M48.5002 37.2449H44.7754V40.9462H48.5002V37.2449Z" fill="#FFFF00"/>
<path d="M52.3024 37.2449H48.5776V40.9462H52.3024V37.2449Z" fill="#B3B3B3"/>
<path d="M56.0273 37.2449H52.3025V40.9462H56.0273V37.2449Z" fill="#FFFF00"/>
<path d="M59.7521 37.2449H56.0273V40.9462H59.7521V37.2449Z" fill="#B3B3B3"/>
<path d="M63.4767 37.2449H59.752V40.9462H63.4767V37.2449Z" fill="#FFFF00"/>
<path d="M67.2792 37.2449H63.5544V40.9462H67.2792V37.2449Z" fill="#B3B3B3"/>
<path d="M7.29438 40.9463H3.56958V44.6477H7.29438V40.9463Z" fill="#FFFF00"/>
<path d="M11.0966 40.9463H7.37183V44.6477H11.0966V40.9463Z" fill="#B3B3B3"/>
<path d="M14.8215 40.9463H11.0967V44.6477H14.8215V40.9463Z" fill="#FFFF00"/>
<path d="M18.5463 40.9463H14.8215V44.6477H18.5463V40.9463Z" fill="#B3B3B3"/>
<path d="M22.2712 40.9463H18.5464V44.6477H22.2712V40.9463Z" fill="#FFFF00"/>
<path d="M26.0737 40.9463H22.3489V44.6477H26.0737V40.9463Z" fill="#B3B3B3"/>
<path d="M29.7985 40.9463H26.0737V44.6477H29.7985V40.9463Z" fill="#FFFF00"/>
<path d="M33.5234 40.9463H29.7986V44.6477H33.5234V40.9463Z" fill="#B3B3B3"/>
<path d="M37.2482 40.9463H33.5234V44.6477H37.2482V40.9463Z" fill="#FFFF00"/>
<path d="M41.0505 40.9463H37.3257V44.6477H41.0505V40.9463Z" fill="#B3B3B3"/>
<path d="M44.7753 40.9463H41.0505V44.6477H44.7753V40.9463Z" fill="#FFFF00"/>
<path d="M48.5002 40.9463H44.7754V44.6477H48.5002V40.9463Z" fill="#B3B3B3"/>
<path d="M52.3024 40.9463H48.5776V44.6477H52.3024V40.9463Z" fill="#FFFF00"/>
<path d="M56.0273 40.9463H52.3025V44.6477H56.0273V40.9463Z" fill="#B3B3B3"/>
<path d="M59.7521 40.9463H56.0273V44.6477H59.7521V40.9463Z" fill="#FFFF00"/>
<path d="M63.4767 40.9463H59.752V44.6477H63.4767V40.9463Z" fill="#B3B3B3"/>
<path d="M67.2792 40.9463H63.5544V44.6477H67.2792V40.9463Z" fill="#FFFF00"/>
<path d="M71.0041 40.9463H67.2793V44.6477H71.0041V40.9463Z" fill="#B3B3B3"/>
<path d="M11.0966 44.6475H7.37183V48.3488H11.0966V44.6475Z" fill="#FFFF00"/>
<path d="M14.8215 44.6475H11.0967V48.3488H14.8215V44.6475Z" fill="#B3B3B3"/>
<path d="M18.5463 44.6475H14.8215V48.3488H18.5463V44.6475Z" fill="#FFFF00"/>
<path d="M22.2712 44.6475H18.5464V48.3488H22.2712V44.6475Z" fill="#B3B3B3"/>
<path d="M26.0737 44.6475H22.3489V48.3488H26.0737V44.6475Z" fill="#FFFF00"/>
<path d="M29.7985 44.6475H26.0737V48.3488H29.7985V44.6475Z" fill="#B3B3B3"/>
<path d="M33.5234 44.6475H29.7986V48.3488H33.5234V44.6475Z" fill="#FFFF00"/>
<path d="M37.2482 44.6475H33.5234V48.3488H37.2482V44.6475Z" fill="#B3B3B3"/>
<path d="M41.0505 44.6475H37.3257V48.3488H41.0505V44.6475Z" fill="#FFFF00"/>
<path d="M44.7753 44.6475H41.0505V48.3488H44.7753V44.6475Z" fill="#B3B3B3"/>
<path d="M48.5002 44.6475H44.7754V48.3488H48.5002V44.6475Z" fill="#FFFF00"/>
<path d="M52.3024 44.6475H48.5776V48.3488H52.3024V44.6475Z" fill="#B3B3B3"/>
<path d="M56.0273 44.6475H52.3025V48.3488H56.0273V44.6475Z" fill="#FFFF00"/>
<path d="M59.7521 44.6475H56.0273V48.3488H59.7521V44.6475Z" fill="#B3B3B3"/>
<path d="M63.4767 44.6475H59.752V48.3488H63.4767V44.6475Z" fill="#FFFF00"/>
<path d="M67.2792 44.6475H63.5544V48.3488H67.2792V44.6475Z" fill="#B3B3B3"/>
<path d="M71.0041 44.6475H67.2793V48.3488H71.0041V44.6475Z" fill="#FFFF00"/>
<path d="M11.0966 48.4263H7.37183V52.1276H11.0966V48.4263Z" fill="#B3B3B3"/>
<path d="M14.8215 48.4263H11.0967V52.1276H14.8215V48.4263Z" fill="#FFFF00"/>
<path d="M18.5463 48.4263H14.8215V52.1276H18.5463V48.4263Z" fill="#B3B3B3"/>
<path d="M22.2712 48.4263H18.5464V52.1276H22.2712V48.4263Z" fill="#FFFF00"/>
<path d="M26.0737 48.4263H22.3489V52.1276H26.0737V48.4263Z" fill="#B3B3B3"/>
<path d="M29.7985 48.4263H26.0737V52.1276H29.7985V48.4263Z" fill="#FFFF00"/>
<path d="M33.5234 48.4263H29.7986V52.1276H33.5234V48.4263Z" fill="#B3B3B3"/>
<path d="M37.2482 48.4263H33.5234V52.1276H37.2482V48.4263Z" fill="#FFFF00"/>
<path d="M41.0505 48.4263H37.3257V52.1276H41.0505V48.4263Z" fill="#B3B3B3"/>
<path d="M44.7753 48.4263H41.0505V52.1276H44.7753V48.4263Z" fill="#FFFF00"/>
<path d="M48.5002 48.4263H44.7754V52.1276H48.5002V48.4263Z" fill="#B3B3B3"/>
<path d="M52.3024 48.4263H48.5776V52.1276H52.3024V48.4263Z" fill="#FFFF00"/>
<path d="M56.0273 48.4263H52.3025V52.1276H56.0273V48.4263Z" fill="#B3B3B3"/>
<path d="M59.7521 48.4263H56.0273V52.1276H59.7521V48.4263Z" fill="#FFFF00"/>
<path d="M63.4767 48.4263H59.752V52.1276H63.4767V48.4263Z" fill="#B3B3B3"/>
<path d="M67.2792 48.4263H63.5544V52.1276H67.2792V48.4263Z" fill="#FFFF00"/>
<path d="M71.0041 48.4263H67.2793V52.1276H71.0041V48.4263Z" fill="#B3B3B3"/>
<path d="M74.7287 48.4263H71.0039V52.1276H74.7287V48.4263Z" fill="#666666"/>
<path d="M78.4536 48.4263H74.7288V52.1276H78.4536V48.4263Z" fill="#666666"/>
<path d="M11.0966 52.1274H7.37183V55.8288H11.0966V52.1274Z" fill="#FFFF00"/>
<path d="M14.8215 52.1274H11.0967V55.8288H14.8215V52.1274Z" fill="#B3B3B3"/>
<path d="M18.5463 52.1274H14.8215V55.8288H18.5463V52.1274Z" fill="#FFFF00"/>
<path d="M22.2712 52.1274H18.5464V55.8288H22.2712V52.1274Z" fill="#B3B3B3"/>
<path d="M26.0737 52.1274H22.3489V55.8288H26.0737V52.1274Z" fill="#FFFF00"/>
<path d="M29.7985 52.1274H26.0737V55.8288H29.7985V52.1274Z" fill="#B3B3B3"/>
<path d="M33.5234 52.1274H29.7986V55.8288H33.5234V52.1274Z" fill="#FFFF00"/>
<path d="M37.2482 52.1274H33.5234V55.8288H37.2482V52.1274Z" fill="#B3B3B3"/>
<path d="M41.0505 52.1274H37.3257V55.8288H41.0505V52.1274Z" fill="#FFFF00"/>
<path d="M44.7753 52.1274H41.0505V55.8288H44.7753V52.1274Z" fill="#B3B3B3"/>
<path d="M48.5002 52.1274H44.7754V55.8288H48.5002V52.1274Z" fill="#FFFF00"/>
<path d="M52.3024 52.1274H48.5776V55.8288H52.3024V52.1274Z" fill="#B3B3B3"/>
<path d="M56.0273 52.1274H52.3025V55.8288H56.0273V52.1274Z" fill="#FFFF00"/>
<path d="M59.7521 52.1274H56.0273V55.8288H59.7521V52.1274Z" fill="#B3B3B3"/>
<path d="M63.4767 52.1274H59.752V55.8288H63.4767V52.1274Z" fill="#FFFF00"/>
<path d="M67.2792 52.1274H63.5544V55.8288H67.2792V52.1274Z" fill="#B3B3B3"/>
<path d="M14.8215 55.8289H11.0967V59.5302H14.8215V55.8289Z" fill="#FFFF00"/>
<path d="M18.5463 55.8289H14.8215V59.5302H18.5463V55.8289Z" fill="#B3B3B3"/>
<path d="M22.2712 55.8289H18.5464V59.5302H22.2712V55.8289Z" fill="#FFFF00"/>
<path d="M26.0737 55.8289H22.3489V59.5302H26.0737V55.8289Z" fill="#B3B3B3"/>
<path d="M29.7985 55.8289H26.0737V59.5302H29.7985V55.8289Z" fill="#FFFF00"/>
<path d="M33.5234 55.8289H29.7986V59.5302H33.5234V55.8289Z" fill="#B3B3B3"/>
<path d="M37.2482 55.8289H33.5234V59.5302H37.2482V55.8289Z" fill="#FFFF00"/>
<path d="M41.0505 55.8289H37.3257V59.5302H41.0505V55.8289Z" fill="#B3B3B3"/>
<path d="M44.7753 55.8289H41.0505V59.5302H44.7753V55.8289Z" fill="#FFFF00"/>
<path d="M48.5002 55.8289H44.7754V59.5302H48.5002V55.8289Z" fill="#B3B3B3"/>
<path d="M52.3024 55.8289H48.5776V59.5302H52.3024V55.8289Z" fill="#FFFF00"/>
<path d="M56.0273 55.8289H52.3025V59.5302H56.0273V55.8289Z" fill="#B3B3B3"/>
<path d="M59.7521 55.8289H56.0273V59.5302H59.7521V55.8289Z" fill="#FFFF00"/>
<path d="M63.4767 55.8289H59.752V59.5302H63.4767V55.8289Z" fill="#B3B3B3"/>
<path d="M67.2792 55.8289H63.5544V59.5302H67.2792V55.8289Z" fill="#FFFF00"/>
<path d="M71.0041 55.8289H67.2793V59.5302H71.0041V55.8289Z" fill="#B3B3B3"/>
<path fill-rule="evenodd" clip-rule="evenodd" d="M74.7289 55.8288V59.5302H71.0041V55.8288H67.2793V52.1274H71.0041H74.7289V55.8288Z" fill="#FFFF00"/>
<path d="M14.8215 59.5303H11.0967V63.2316H14.8215V59.5303Z" fill="#B3B3B3"/>
<path d="M18.5463 59.5303H14.8215V63.2316H18.5463V59.5303Z" fill="#FFFF00"/>
<path d="M22.2712 59.5303H18.5464V63.2316H22.2712V59.5303Z" fill="#B3B3B3"/>
<path d="M26.0737 59.5303H22.3489V63.2316H26.0737V59.5303Z" fill="#FFFF00"/>
<path d="M29.7985 59.5303H26.0737V63.2316H29.7985V59.5303Z" fill="#B3B3B3"/>
<path d="M33.5234 59.5303H29.7986V63.2316H33.5234V59.5303Z" fill="#FFFF00"/>
<path d="M37.2482 59.5303H33.5234V63.2316H37.2482V59.5303Z" fill="#B3B3B3"/>
<path d="M41.0505 59.5303H37.3257V63.2316H41.0505V59.5303Z" fill="#FFFF00"/>
<path d="M44.7753 59.5303H41.0505V63.2316H44.7753V59.5303Z" fill="#B3B3B3"/>
<path d="M48.5002 59.5303H44.7754V63.2316H48.5002V59.5303Z" fill="#FFFF00"/>
<path d="M52.3024 59.5303H48.5776V63.2316H52.3024V59.5303Z" fill="#B3B3B3"/>
<path d="M56.0273 59.5303H52.3025V63.2316H56.0273V59.5303Z" fill="#FFFF00"/>
<path d="M59.7521 59.5303H56.0273V63.2316H59.7521V59.5303Z" fill="#B3B3B3"/>
<path d="M63.4767 59.5303H59.752V63.2316H63.4767V59.5303Z" fill="#FFFF00"/>
<path d="M67.2792 59.5303H63.5544V63.2316H67.2792V59.5303Z" fill="#B3B3B3"/>
<path d="M71.0041 59.5303H67.2793V63.2316H71.0041V59.5303Z" fill="#FFFF00"/>
<path d="M74.7287 59.5303H71.0039V63.2316H74.7287V59.5303Z" fill="#B3B3B3"/>
<path d="M78.4536 59.5303H74.7288V63.2316H78.4536V59.5303Z" fill="#FFFF00"/>
<path d="M82.2563 59.5303H78.5315V63.2316H82.2563V59.5303Z" fill="#00381C"/>
<path d="M14.8215 63.3086H11.0967V67.01H14.8215V63.3086Z" fill="#FFFF00"/>
<path d="M18.5463 63.3086H14.8215V67.01H18.5463V63.3086Z" fill="#B3B3B3"/>
<path d="M22.2712 63.3086H18.5464V67.01H22.2712V63.3086Z" fill="#FFFF00"/>
<path d="M26.0737 63.3086H22.3489V67.01H26.0737V63.3086Z" fill="#B3B3B3"/>
<path d="M29.7985 63.3086H26.0737V67.01H29.7985V63.3086Z" fill="#FFFF00"/>
<path d="M33.5234 63.3086H29.7986V67.01H33.5234V63.3086Z" fill="#B3B3B3"/>
<path d="M37.2482 63.3086H33.5234V67.01H37.2482V63.3086Z" fill="#FFFF00"/>
<path d="M41.0505 63.3086H37.3257V67.01H41.0505V63.3086Z" fill="#B3B3B3"/>
<path d="M44.7753 63.3086H41.0505V67.01H44.7753V63.3086Z" fill="#FFFF00"/>
<path d="M48.5002 63.3086H44.7754V67.01H48.5002V63.3086Z" fill="#B3B3B3"/>
<path d="M52.3024 63.3086H48.5776V67.01H52.3024V63.3086Z" fill="#FFFF00"/>
<path d="M56.0273 63.3086H52.3025V67.01H56.0273V63.3086Z" fill="#B3B3B3"/>
<path d="M59.7521 63.3086H56.0273V67.01H59.7521V63.3086Z" fill="#FFFF00"/>
<path d="M63.4767 63.3086H59.752V67.01H63.4767V63.3086Z" fill="#B3B3B3"/>
<path d="M67.2792 63.3086H63.5544V67.01H67.2792V63.3086Z" fill="#FFFF00"/>
<path d="M71.0041 63.3086H67.2793V67.01H71.0041V63.3086Z" fill="#B3B3B3"/>
<path d="M74.7287 63.3086H71.0039V67.01H74.7287V63.3086Z" fill="#FFFF00"/>
<path d="M78.4536 63.3086H74.7288V67.01H78.4536V63.3086Z" fill="#B3B3B3"/>
<path d="M18.5463 67.0098H14.8215V70.7111H18.5463V67.0098Z" fill="#FFFF00"/>
<path d="M22.2712 67.0098H18.5464V70.7111H22.2712V67.0098Z" fill="#B3B3B3"/>
<path d="M26.0737 67.0098H22.3489V70.7111H26.0737V67.0098Z" fill="#FFFF00"/>
<path d="M29.7985 67.0098H26.0737V70.7111H29.7985V67.0098Z" fill="#B3B3B3"/>
<path d="M33.5234 67.0098H29.7986V70.7111H33.5234V67.0098Z" fill="#FFFF00"/>
<path d="M37.2482 67.0098H33.5234V70.7111H37.2482V67.0098Z" fill="#B3B3B3"/>
<path d="M41.0505 67.0098H37.3257V70.7111H41.0505V67.0098Z" fill="#FFFF00"/>
<path d="M44.7753 67.0098H41.0505V70.7111H44.7753V67.0098Z" fill="#B3B3B3"/>
<path d="M48.5002 67.0098H44.7754V70.7111H48.5002V67.0098Z" fill="#FFFF00"/>
<path d="M52.3024 67.0098H48.5776V70.7111H52.3024V67.0098Z" fill="#B3B3B3"/>
<path d="M56.0273 67.0098H52.3025V70.7111H56.0273V67.0098Z" fill="#FFFF00"/>
<path d="M59.7521 67.0098H56.0273V70.7111H59.7521V67.0098Z" fill="#B3B3B3"/>
<path d="M63.4767 67.0098H59.752V70.7111H63.4767V67.0098Z" fill="#FFFF00"/>
<path d="M67.2792 67.0098H63.5544V70.7111H67.2792V67.0098Z" fill="#B3B3B3"/>
<path d="M71.0041 67.0098H67.2793V70.7111H71.0041V67.0098Z" fill="#FFFF00"/>
<path d="M74.7287 67.0098H71.0039V70.7111H74.7287V67.0098Z" fill="#B3B3B3"/>
<path d="M78.4536 67.0098H74.7288V70.7111H78.4536V67.0098Z" fill="#FFFF00"/>
<path d="M18.5463 70.7112H14.8215V74.4125H18.5463V70.7112Z" fill="#B3B3B3"/>
<path d="M22.2712 70.7112H18.5464V74.4125H22.2712V70.7112Z" fill="#FFFF00"/>
<path d="M26.0737 70.7112H22.3489V74.4125H26.0737V70.7112Z" fill="#B3B3B3"/>
<path d="M29.7985 70.7112H26.0737V74.4125H29.7985V70.7112Z" fill="#FFFF00"/>
<path d="M33.5234 70.7112H29.7986V74.4125H33.5234V70.7112Z" fill="#B3B3B3"/>
<path d="M37.2482 70.7112H33.5234V74.4125H37.2482V70.7112Z" fill="#FFFF00"/>
<path d="M41.0505 70.7112H37.3257V74.4125H41.0505V70.7112Z" fill="#B3B3B3"/>
<path d="M44.7753 70.7112H41.0505V74.4125H44.7753V70.7112Z" fill="#FFFF00"/>
<path d="M48.5002 70.7112H44.7754V74.4125H48.5002V70.7112Z" fill="#B3B3B3"/>
<path d="M52.3024 70.7112H48.5776V74.4125H52.3024V70.7112Z" fill="#FFFF00"/>
<path d="M56.0273 70.7112H52.3025V74.4125H56.0273V70.7112Z" fill="#B3B3B3"/>
<path d="M59.7521 70.7112H56.0273V74.4125H59.7521V70.7112Z" fill="#FFFF00"/>
<path d="M63.4767 70.7112H59.752V74.4125H63.4767V70.7112Z" fill="#B3B3B3"/>
<path d="M67.2792 70.7112H63.5544V74.4125H67.2792V70.7112Z" fill="#FFFF00"/>
<path d="M71.0041 70.7112H67.2793V74.4125H71.0041V70.7112Z" fill="#B3B3B3"/>
<path d="M74.7287 70.7112H71.0039V74.4125H74.7287V70.7112Z" fill="#FFFF00"/>
<path d="M78.4536 70.7112H74.7288V74.4125H78.4536V70.7112Z" fill="#B3B3B3"/>
<path d="M82.2563 70.7112H78.5315V74.4125H82.2563V70.7112Z" fill="#FFFF00"/>
<path fill-rule="evenodd" clip-rule="evenodd" d="M14.8215 74.4126H18.5463H22.3487H26.0735H29.7983H33.5231H37.3255H41.0503H44.7751H48.5775H52.3023H56.0271H59.7519H63.5543H67.2791H71.0039H74.7287H78.5311H82.2559V78.1911H78.5311H74.7287H71.0039H67.2791H63.5543H59.7519H56.0271H52.3023H48.5775H44.7751H41.0503H37.3255H33.5231H29.7983H26.0735H22.3487H18.5463H14.8215V74.4126Z" fill="#7B8330"/>
<path fill-rule="evenodd" clip-rule="evenodd" d="M78.5311 55.8286V59.53H74.8063V55.8286V52.1272H78.5311V55.8286ZM14.8215 78.191H18.5463H22.2711H25.9959H29.7207H33.4455H37.1703H40.8951H44.6199H48.3447H52.0695H55.7943H59.5191H63.2439H66.9687H70.6935H74.4183H78.1431H81.8679V74.4125V70.7112H78.1431V67.0098V63.3084H81.8679V59.6071H85.5927V55.9057H89.3175V52.2044H93.0423V48.503H89.3175V44.8016H85.5927V41.1003H81.8679V37.3989H78.1431V33.6976H74.4183V29.9963H70.6935V26.2949H66.9687V22.5935H63.2439V18.8922H59.5191V15.1908H55.7943V11.181H52.3023V7.47967H48.5775V3.77832H52.3023V7.47967H56.0271V11.181H59.7519V14.8824H63.4767V18.5837H67.2015V22.2851H70.9263V25.9864H74.6511V29.6878H78.3759V33.3891H82.1007V29.6878V25.9864H85.8255V29.6878V33.3891V37.0905V40.7919H89.5503V44.4932H93.2751V48.1946H96.9999V51.8959H93.2751V55.5973H89.5503V59.2987H85.8255V63V66.7013V70.4027V74.104V77.8054H82.1007V81.5068H78.3759H74.6511H70.9263H67.2015H63.4767H59.7519H56.0271H52.3023H48.5775H44.8527H41.1279H37.4031H33.6783H29.7983H26.0735H22.3487H18.6239H14.8991V78.191H14.8215ZM67.2791 33.4663H71.0039V37.1676V40.869H74.7287V44.5703V48.2717H71.0039V44.5703V40.869H67.2791V37.1676V33.4663Z" fill="black"/>
<path d="M48.5002 26.0637H44.7754V29.7651H48.5002V26.0637Z" fill="#009933"/>
<path d="M48.5002 22.3623H44.7754V26.0637H48.5002V22.3623Z" fill="#009933"/>
<path d="M52.3024 22.3623H48.5776V26.0637H52.3024V22.3623Z" fill="#009933"/>
<path d="M56.0273 22.3623H52.3025V26.0637H56.0273V22.3623Z" fill="#009933"/>
<path d="M82.2563 55.8289H78.5315V59.5302H82.2563V55.8289Z" fill="#009933"/>
<path d="M85.9809 55.8289H82.2561V59.5302H85.9809V55.8289Z" fill="#006633"/>
<path d="M89.7055 52.1274H85.9807V55.8288H89.7055V52.1274Z" fill="#006633"/>
<path d="M85.9809 52.1274H82.2561V55.8288H85.9809V52.1274Z" fill="#009933"/>
<path d="M89.7055 48.4263H85.9807V52.1276H89.7055V48.4263Z" fill="#009933"/>
</svg>
