<svg width="79" height="82" viewBox="0 0 79 82" fill="none" xmlns="http://www.w3.org/2000/svg">
<path fill-rule="evenodd" clip-rule="evenodd" d="M15.8218 0H18.4406V2.6222H15.8218V5.24441H13.203V7.92126V10.5435V13.1657V15.7879V18.4647V21.0869V23.7091V26.3314V29.0082V31.6304V34.2526V36.8748V39.5517V42.1739V44.7961H10.5842V42.1739V39.5517V36.8748V34.2526V31.6304V29.0082V26.3314V23.7091V21.0869V18.4647V15.7879V13.1657V10.5435V7.92126V5.24441H13.203V2.6222H15.8218V0Z" fill="#666666"/>
<path fill-rule="evenodd" clip-rule="evenodd" d="M18.4407 0H21.114H23.7328H26.3516H28.9704H31.6437H34.2625H36.8813H39.5546H42.1734H44.7922H47.4109H50.0843H52.7031H55.3218H57.9406H60.614H63.2327V2.6222H60.614H57.9406H55.3218H52.7031H50.0843H47.4109H44.7922H42.1734H39.5546H36.8813H34.2625H31.6437H28.9704H26.3516H23.7328H21.114H18.4407V0Z" fill="#B3B3B3"/>
<path fill-rule="evenodd" clip-rule="evenodd" d="M63.2328 0H65.8515V2.6222H63.2328V5.24441H60.614H57.9406H55.3219H52.7031H50.0843H47.411H44.7922H42.1734H39.5546H36.8813H34.2625H31.6437H28.9704H26.3516H23.7328H21.114H18.4407H15.8219V7.92126V10.5435V13.1657V15.7879V18.4647V21.0869V23.7091V26.3314V29.0082V31.6304V34.2526V36.8748V39.5517V42.1739H13.2031V39.5517V36.8748V34.2526V31.6304V29.0082V26.3314V23.7091V21.0869V18.4647V15.7879V13.1657V10.5435V7.92126V5.24441H15.8219V2.6222H18.4407H21.114H23.7328H26.3516H28.9704H31.6437H34.2625H36.8813H39.5546H42.1734H44.7922H47.411H50.0843H52.7031H55.3219H57.9406H60.614H63.2328V0Z" fill="white"/>
<path fill-rule="evenodd" clip-rule="evenodd" d="M65.8515 0H68.5248V2.6222V5.24441V7.92126V10.5435V13.1657V15.7879V18.4647V21.0869V23.7091V26.3314V29.0082V31.6304V34.2526V36.8748V39.5517V42.1739H65.8515H63.2327V39.5517V36.8748V34.2526V31.6304V29.0082V26.3314V23.7091V21.0869V18.4647V15.7879V13.1657V10.5435V7.92126V5.24441V2.6222H65.8515V0Z" fill="#666666"/>
<path fill-rule="evenodd" clip-rule="evenodd" d="M68.5248 0H71.1436V2.6222V5.24441V7.92126V10.5435V13.1657V15.7879V18.4647V21.0869V23.7091V26.3314V29.0082V31.6304V34.2526V36.8748V39.5517V42.1739H68.5248V44.7961H65.8514V47.4729H63.2327H60.6139H57.9405H55.3217H52.703H50.0842H47.4108H44.7921H42.1733H39.5545H36.8812H34.2624H31.6436H28.9703H26.3515H23.7327H21.1139H18.4406H15.8218H13.203H10.5842V44.7961H13.203H15.8218H18.4406H21.1139H23.7327H26.3515H28.9703H31.6436H34.2624H36.8812H39.5545H42.1733H44.7921H47.4108H50.0842H52.703H55.3217H57.9405H60.6139H63.2327H65.8514V42.1739H68.5248V39.5517V36.8748V34.2526V31.6304V29.0082V26.3314V23.7091V21.0869V18.4647V15.7879V13.1657V10.5435V7.92126V5.24441V2.6222V0Z" fill="black"/>
<path fill-rule="evenodd" clip-rule="evenodd" d="M57.9406 7.92114H60.614V10.5433V13.1656V15.7878V18.4646V21.0868V23.709V26.3312V29.0081V31.6303V34.2525V36.8747V39.5515H57.9406H55.3218H52.7031H50.0843H47.4109H44.7922H42.1734H39.5546H36.8813H34.2625H31.6437H28.9704H26.3516H23.7328H21.114H18.4407V36.8747H21.114H23.7328H26.3516H28.9704H31.6437H34.2625H36.8813H39.5546H42.1734H44.7922H47.4109H50.0843H52.7031H55.3218H57.9406V34.2525V31.6303V29.0081V26.3312V23.709V21.0868V18.4646V15.7878V13.1656V10.5433V7.92114Z" fill="white"/>
<path fill-rule="evenodd" clip-rule="evenodd" d="M18.4407 10.5435H21.114H23.7328H26.3516H28.9704H31.6437H34.2625H36.8813H39.5546H42.1734H44.7922H47.4109H50.0843H52.7031H55.3218V13.1657H52.7031H50.0843H47.4109H44.7922H42.1734H39.5546H36.8813H34.2625H31.6437H28.9704H26.3516H23.7328H21.114V15.7879V18.4647V21.0869V23.7091V26.3313V29.0082V31.6304V34.2526H18.4407V31.6304V29.0082V26.3313V23.7091V21.0869V18.4647V15.7879V13.1657V10.5435Z" fill="black"/>
<path fill-rule="evenodd" clip-rule="evenodd" d="M39.5546 13.1658H42.1734H44.7922H47.4109H50.0297H52.6485H55.2673V15.788V18.4102V21.0324V23.6546V26.2768V28.899V31.5212V34.1435H52.6485H50.0297H47.4109H44.7922H42.1734H39.5546H36.9358H34.317H31.6983H29.0795H26.4607H23.7328H21.114V31.6305V29.0083V26.3861V23.7639V21.1417V18.5195V15.788V13.1658H23.7328H26.3516H28.9704H31.5891H34.2079H36.8267H39.5546ZM39.5546 31.6305H42.1734V29.0083H39.5546V26.3861V23.7639V21.1417H36.9358H34.317V23.7639H36.9358V26.3861V29.0083H34.317V31.6305H36.9358H39.5546ZM39.5546 18.4648V15.788H36.9358V18.4102H39.5546V18.4648Z" fill="#00FFFF"/>
<path fill-rule="evenodd" clip-rule="evenodd" d="M39.5545 29.0082H42.1732V31.6304H39.5545H36.9357H34.3169V29.0082H36.9357V26.3859V23.7637H34.3169V21.1415H36.9357H39.5545V23.7637V26.3859V29.0082ZM36.8811 15.7878H39.4999V18.4101H36.8811V15.7878Z" fill="black"/>
<path fill-rule="evenodd" clip-rule="evenodd" d="M18.4407 34.2525H21.114H23.7328H26.3516H28.9704H31.6437H34.2625H36.8813H39.5546H42.1734H44.7922H47.4109H50.0843H52.7031H55.3218V31.6303V29.0081V26.3312V23.709V21.0868V18.4646V15.7878V13.1656V10.5433H52.7031H50.0843H47.4109H44.7922H42.1734H39.5546H36.8813H34.2625H31.6437H28.9704H26.3516H23.7328H21.114H18.4407V7.92114H21.114H23.7328H26.3516H28.9704H31.6437H34.2625H36.8813H39.5546H42.1734H44.7922H47.4109H50.0843H52.7031H55.3218H57.9406V10.5433V13.1656V15.7878V18.4646V21.0868V23.709V26.3312V29.0081V31.6303V34.2525V36.8747H55.3218H52.7031H50.0843H47.4109H44.7922H42.1734H39.5546H36.8813H34.2625H31.6437H28.9704H26.3516H23.7328H21.114H18.4407V34.2525Z" fill="#666666"/>
<path fill-rule="evenodd" clip-rule="evenodd" d="M18.4406 42.1739H15.8218V39.5517V36.9295V34.3073V31.6304V29.0082V26.386V23.7638V21.1416V18.5194V15.7879V13.1657V10.5435V7.92128V5.29907H18.4406H21.0593H23.6781H26.2969H28.9157H31.5345H34.1533H36.772H39.3908H42.0096H44.6284H47.2472H49.8659H52.4847H55.1035H57.7223H60.3411H62.9598V7.92128V10.5435V13.1657V15.7879V18.4101V21.0323V23.6545V26.2767V28.899V31.5212V34.1434V36.7656V39.3878V42.01H60.3411H57.7223H55.1035H52.4847H49.8659H47.2472H44.6284H42.0096H39.5545H36.9357H34.3169H31.6981H29.0794H26.4606H23.7327H21.1139H18.4406V42.1739ZM18.4406 7.92128V10.5435V13.1657V15.7879V18.4101V21.0323V23.6545V26.2767V28.899V31.5212V34.1434V36.7656V39.3878H21.0593H23.6781H26.2969H28.9157H31.5345H34.1533H36.772H39.3908H42.0096H44.6284H47.2472H49.8659H52.4847H55.1035H57.7223H60.3411V36.7656V34.1434V31.6304V29.0082V26.386V23.7638V21.1416V18.5194V15.7879V13.1657V10.5435V7.92128H57.7223H55.1035H52.4847H49.8659H47.2472H44.6284H42.0096H39.5545H36.9357H34.3169H31.6981H29.0794H26.4606H23.7327H21.1139H18.4406Z" fill="#B3B3B3"/>
<path fill-rule="evenodd" clip-rule="evenodd" d="M13.2031 42.1736H15.8219H18.4407H21.114H23.7328H26.3516H28.9704H31.6437H34.2625H36.8813H39.5546H42.1734H44.7922H47.411H50.0843H52.7031H55.3219H57.9406H60.614H63.2328H65.8515V44.7958H63.2328H60.614H57.9406H55.3219H52.7031H50.0843H47.411H44.7922H42.1734H39.5546H36.8813H34.2625H31.6437H28.9704H26.3516H23.7328H21.114H18.4407H15.8219H13.2031V42.1736Z" fill="#666666"/>
<path d="M76.3812 42.1736H73.7625V44.7958H76.3812V42.1736Z" fill="#B3B3B3"/>
<path fill-rule="evenodd" clip-rule="evenodd" d="M76.3813 42.1736H79V44.7958V47.418V50.0402V52.6624V55.2846V57.9068V60.5291V63.1513V65.7735H76.3813V68.3957H73.7625V71.0179H71.1437V73.6401H68.5249V76.2623H65.9061V78.8845H63.2874V81.5067H60.6686H58.0498H55.431H52.8122H50.1934H47.5747H44.9559H42.3371H39.5546H36.9359H34.3171H31.6983H29.0795H26.4607H23.7328H21.1141H18.4953H15.8765H13.2577H10.6389H7.91103H5.29225H2.67346H0.0546875V78.8845H2.67346H5.29225H7.91103H10.5298H13.1486H15.7674H18.3862H21.0049H23.6237H26.2425H28.8613H31.4801H34.0988H36.7176H39.3364H41.9552H44.574H47.1928H49.8115H52.4303H55.0491H57.6679H60.2867H62.9054V76.4262H65.5242V73.804H68.143V71.1818V68.5596H70.7618H73.3806V65.9374H75.9994V63.3152V60.693V58.0707V55.4485V52.8263V50.2041V47.4726V44.8504V42.1736H76.3813ZM34.2625 58.0161H36.8813H39.5001H42.1189H44.7376H47.3564H49.9752H52.594H55.2128H57.8316H60.4503H63.0691V60.6383H60.4503H57.8316H55.2128H52.594H49.9752H47.3564H44.7376H42.1189H39.5546H36.9359H34.3171V58.0161H34.2625Z" fill="black"/>
<path d="M73.7623 44.7959H71.1436V47.4181H73.7623V44.7959Z" fill="#B3B3B3"/>
<path fill-rule="evenodd" clip-rule="evenodd" d="M68.5249 47.4728V50.095H71.1437V47.4728H68.5249ZM34.2625 55.3395H36.8813H39.5001H42.1189H44.7376H47.3564H49.9752H52.594H55.2128H57.8316H60.4503H63.0691V57.9617H60.4503H57.8316H55.2128H52.594H49.9752H47.3564H44.7376H42.1189H39.5546H36.9359H34.3171L34.2625 55.3395ZM76.3813 50.095V52.7172V55.3395V57.9617V60.5839V63.2061V65.8283H73.7625V68.4505H71.1437H68.5249V71.0727V73.6949H65.9061V76.3171H63.2874V78.9393H60.6686V76.4264H63.2874V73.8042H60.6686H58.0498V71.182H55.431V73.8042H52.8122H50.1934V71.182H47.5747V73.8042H44.9559H42.3371V71.182H39.5546V73.8042H36.9359H34.3171V71.182H31.6983V73.8042H29.0795H26.4607V71.182H23.7328V73.8042H21.1141H18.4953V71.182H15.8765V73.8042H13.2577H10.6389V71.182H7.91103V73.8042H5.29225V71.182H2.67346V73.8042H0.0546875V71.182H2.67346V68.5598H5.29225V65.9375V63.3153V60.6931V58.0709V55.4487V52.8265V50.2043H7.91103V47.4728H10.5298H13.1486H15.7674H18.3862H21.0049H23.6237H26.2425H28.8613H31.4801H34.0988H36.7176H39.3364H41.9552H44.574H47.1928H49.8115H52.4303H55.0491H57.6679H60.2867H62.9054H65.5242V44.8506H68.143V42.2284H70.7618V39.6062H73.3806H75.9994V42.2284H73.3806V44.8506H75.9994V47.4728V50.095H76.3813ZM65.8516 50.095H63.2328H60.614H57.9952H55.3764H52.7577H50.1389H47.5201H44.9013H42.2825H39.5546H36.9359H34.3171H31.6983H29.0795H26.4607H23.7328H21.1141H18.4953H15.8765H13.2577H10.6389H7.91103V52.7172V55.3395V57.9617V60.5839V63.2061V65.8283H10.5298H13.1486V68.4505H10.5298V71.0727H13.1486H15.7674V68.4505H18.3862V65.8283H21.0049V68.4505H18.3862V71.0727H21.0049H23.6237V68.4505H26.2425V65.8283H28.8613V68.4505H26.2425V71.0727H28.8613H31.4801V68.4505H34.0988V65.8283H36.7176V68.4505H34.0988V71.0727H36.7176H39.3364V68.4505H41.9552V65.8283H44.574V68.4505H41.9552V71.0727H44.574H47.1928V68.4505H49.8115V65.8283H52.4303V68.4505H49.8115V71.0727H52.4303H55.0491V68.4505H57.6679V65.8283H60.2867V68.4505H57.6679V71.0727H60.2867H62.9054V68.4505H65.5242H68.143V65.8283V63.2061V60.5839V57.9617V55.3395V52.7172V50.095H65.8516ZM73.7625 44.796H71.1437V47.4182H73.7625V44.796ZM5.29225 71.182H7.91103V68.5598H5.29225V71.182Z" fill="#666666"/>
<path d="M71.1437 47.4729H68.5249V50.0951H71.1437V47.4729Z" fill="#B3B3B3"/>
<path fill-rule="evenodd" clip-rule="evenodd" d="M10.5842 52.7173H13.203H15.8218H18.4406H21.0594H23.6781H26.2969H28.9157H31.5345H34.1533H36.772H39.3908H42.0096H44.6284H47.2472H49.866H52.4847H55.1035H57.7223H60.3411H62.9599H65.5787H68.1974V55.3395V57.9617V60.5839V63.2061V65.8283H65.5787H62.9599H60.3411H57.7223H55.1035H52.4847H49.866H47.2472H44.6284H42.0096H39.5545H36.9357H34.3169H31.6982H29.0794H26.4606H23.7327H21.1139H18.4951H15.8764H13.2576H10.6388V63.2061V60.5839V57.9617V55.3395V52.7173H10.5842ZM23.7327 60.6385V58.0163H21.1139H18.4951V60.6385V63.2607H21.1139H23.7327V60.6385ZM34.2624 58.0163V60.6385H36.8812H39.4999H42.1187H44.7375H47.3563H49.9751H52.5939V63.2607H55.2126V60.6385H57.8314H60.4502H63.069V58.0163V55.3941H60.4502H57.8314H55.2126H52.5939H49.9751H47.3563H44.7375H42.1187H39.5545H36.9357H34.3169V58.0163H34.2624Z" fill="#B3B3B3"/>
<path fill-rule="evenodd" clip-rule="evenodd" d="M10.5842 55.3396V58.0165V60.6387V63.2609V65.8831H7.91089V63.2609V60.6387V58.0165V55.3396V52.7174V50.0952H10.5842H13.203H15.8218H18.4406H21.1139H23.7327H26.3515H28.9703H31.6436H34.2624H36.8812H39.5545H42.1733H44.7921H47.4108H50.0842H52.703H55.3217H57.9405H60.6139H63.2326H65.8514H68.5248V52.7174H65.8514H63.2326H60.6139H57.9405H55.3217H52.703H50.0842H47.4108H44.7921H42.1733H39.5545H36.8812H34.2624H31.6436H28.9703H26.3515H23.7327H21.1139H18.4406H15.8218H13.203H10.5842V55.3396Z" fill="white"/>
<path fill-rule="evenodd" clip-rule="evenodd" d="M21.114 58.0164H23.7328V60.6386H21.114H18.4407V58.0164H21.114Z" fill="#33CC33"/>
<path fill-rule="evenodd" clip-rule="evenodd" d="M21.114 60.6384H23.7328V63.2606H21.114H18.4407V60.6384H21.114Z" fill="#009933"/>
<path d="M55.3219 60.6384H52.7031V63.2606H55.3219V60.6384Z" fill="#666666"/>
<path d="M15.8219 65.8831H13.2031V68.5053H15.8219V65.8831Z" fill="black"/>
<path d="M18.4406 65.8831H15.8218V68.5053H18.4406V65.8831Z" fill="white"/>
<path d="M23.7328 65.8831H21.114V68.5053H23.7328V65.8831Z" fill="black"/>
<path d="M26.3514 65.8831H23.7327V68.5053H26.3514V65.8831Z" fill="white"/>
<path d="M31.589 65.8831H28.9702V68.5053H31.589V65.8831Z" fill="black"/>
<path d="M34.2626 65.8831H31.6438V68.5053H34.2626V65.8831Z" fill="white"/>
<path d="M39.5001 65.8831H36.8813V68.5053H39.5001V65.8831Z" fill="black"/>
<path d="M42.1732 65.8831H39.5544V68.5053H42.1732V65.8831Z" fill="white"/>
<path d="M47.4108 65.8831H44.792V68.5053H47.4108V65.8831Z" fill="black"/>
<path d="M50.0297 65.8831H47.4109V68.5053H50.0297V65.8831Z" fill="white"/>
<path d="M55.3219 65.8831H52.7031V68.5053H55.3219V65.8831Z" fill="black"/>
<path d="M57.9406 65.8831H55.3218V68.5053H57.9406V65.8831Z" fill="white"/>
<path d="M63.2325 65.8831H60.6138V68.5053H63.2325V65.8831Z" fill="black"/>
<path d="M65.8515 65.8831H63.2327V68.5053H65.8515V65.8831Z" fill="white"/>
<path d="M68.4703 65.8831H65.8516V68.5053H68.4703V65.8831Z" fill="black"/>
<path fill-rule="evenodd" clip-rule="evenodd" d="M5.29212 68.5601H7.9109V71.1823H5.29212V73.8045H7.9109H10.5842H13.203H15.8218H18.4406H21.1139H23.7327H26.3515H28.9703H31.6436H34.2624H36.8812H39.5545H42.1733H44.7921H47.4109H50.0842H52.703H55.3218H57.9405H60.6139V76.4267H57.9405H55.3218H52.703H50.0842H47.4109H44.7921H42.1733H39.5545H36.8812H34.2624H31.6436H28.9703H26.3515H23.7327H21.1139H18.4406H15.8218H13.203H10.5842H7.9109H5.29212H2.67334H0V73.8045H2.67334V71.1823H5.29212V68.5601Z" fill="white"/>
<path d="M13.203 68.5601H10.5842V71.1823H13.203V68.5601Z" fill="black"/>
<path d="M15.8219 68.5601H13.2031V71.1823H15.8219V68.5601Z" fill="white"/>
<path d="M21.0595 68.5601H18.4407V71.1823H21.0595V68.5601Z" fill="black"/>
<path d="M23.7328 68.5601H21.114V71.1823H23.7328V68.5601Z" fill="white"/>
<path d="M28.9701 68.5601H26.3513V71.1823H28.9701V68.5601Z" fill="black"/>
<path d="M31.589 68.5601H28.9702V71.1823H31.589V68.5601Z" fill="white"/>
<path d="M36.8812 68.5601H34.2625V71.1823H36.8812V68.5601Z" fill="black"/>
<path d="M39.5001 68.5601H36.8813V71.1823H39.5001V68.5601Z" fill="white"/>
<path d="M44.7919 68.5601H42.1731V71.1823H44.7919V68.5601Z" fill="black"/>
<path d="M47.4108 68.5601H44.792V71.1823H47.4108V68.5601Z" fill="white"/>
<path d="M52.703 68.5601H50.0842V71.1823H52.703V68.5601Z" fill="black"/>
<path d="M55.3219 68.5601H52.7031V71.1823H55.3219V68.5601Z" fill="white"/>
<path d="M60.5592 68.5601H57.9404V71.1823H60.5592V68.5601Z" fill="black"/>
<path d="M63.2325 68.5601H60.6138V71.1823H63.2325V68.5601Z" fill="white"/>
<path d="M10.5297 71.1821H7.91089V73.8043H10.5297V71.1821Z" fill="black"/>
<path d="M18.4406 71.1821H15.8218V73.8043H18.4406V71.1821Z" fill="black"/>
<path d="M26.3514 71.1821H23.7327V73.8043H26.3514V71.1821Z" fill="black"/>
<path d="M34.2626 71.1821H31.6438V73.8043H34.2626V71.1821Z" fill="black"/>
<path d="M42.1732 71.1821H39.5544V73.8043H42.1732V71.1821Z" fill="black"/>
<path d="M50.0297 71.1821H47.4109V73.8043H50.0297V71.1821Z" fill="black"/>
<path d="M57.9406 71.1821H55.3218V73.8043H57.9406V71.1821Z" fill="black"/>
<path d="M63.2325 73.8044H60.6138V76.4266H63.2325V73.8044Z" fill="#B3B3B3"/>
<path fill-rule="evenodd" clip-rule="evenodd" d="M0 76.4265H2.67334H5.29212H7.9109H10.5842H13.203H15.8218H18.4406H21.1139H23.7327H26.3515H28.9703H31.6436H34.2624H36.8812H39.5545H42.1733H44.7921H47.4109H50.0842H52.703H55.3218H57.9405H60.6139V79.1033H57.9405H55.3218H52.703H50.0842H47.4109H44.7921H42.1733H39.5545H36.8812H34.2624H31.6436H28.9703H26.3515H23.7327H21.1139H18.4406H15.8218H13.203H10.5842H7.9109H5.29212H2.67334H0V76.4265Z" fill="#B3B3B3"/>
</svg>
