<svg width="73" height="83" viewBox="0 0 73 83" fill="none" xmlns="http://www.w3.org/2000/svg">
<path fill-rule="evenodd" clip-rule="evenodd" d="M0.557617 0.506836H3.80663H7.05566H10.3724H13.6214H16.8704H20.1194H23.4361H26.6852H29.9342H33.2509H36.4999H39.7489H42.9979H46.3147H49.5637H52.8127H56.1294H59.3784H62.6274H65.8765H69.1932V3.81573H65.8765H62.6274H59.3784H56.1294H52.8127H49.5637H46.3147H42.9979H39.7489H36.4999H33.2509H29.9342H26.6852H23.4361H20.1194H16.8704H13.6214H10.3724H7.05566H3.80663V7.05708V10.2985V13.6074V16.8487V20.0901V23.3314V26.6403V29.8817V33.1231V36.3644V39.6733V42.9147V46.1561V49.3974V52.7063V55.9477V59.1891V62.498V65.7393V68.9807V72.2221V75.5309V78.7723H0.557617V75.5309V72.2221V68.9807V65.7393V62.498V59.1891V55.9477V52.7063V49.3974V46.1561V42.9147V39.6733V36.3644V33.1231V29.8817V26.6403V23.3314V20.0901V16.8487V13.6074V10.2985V7.05708V3.81573V0.506836Z" fill="#B3B3B3"/>
<path fill-rule="evenodd" clip-rule="evenodd" d="M69.1931 7.05713V10.2985V13.5399V16.7812V20.0226V23.264V26.5053V29.7467V32.988V36.2294V39.4708V42.7122V45.9535V49.1949V52.4363V55.6776V58.919V62.1603V65.4017V68.6431V71.8845V75.1258V78.3672H65.944H62.695H59.446H56.197H52.948H49.5636H46.3145H43.0655H39.8165H36.5675H33.3185H29.9341H26.685H23.436H20.187H16.938H13.689H10.4399H7.19091H3.94189V75.1258V71.8845V68.6431V65.4017V62.498V59.2566V56.0153V52.7739V49.5325V46.2912V42.9147V39.6734V36.432V33.1906V29.9493V26.7079V23.3315V20.0901V16.8488V13.6074V10.366V7.12466V3.8833H7.19091H10.4399H13.689H16.938H20.187H23.436H26.685H29.9341H33.1831H36.4321H39.6811H42.9301H46.1792H49.4282H52.6772H55.9262H59.1753H62.4243H65.6733H68.9223V7.05713H69.1931ZM7.05554 75.531H10.3046H13.5536H16.8026H20.0516H23.3006H26.5497H29.7987H33.0477H36.2967H39.5458H42.7948H46.0438H49.2928H52.5418H55.7909H59.0399H62.2889H65.5379V72.2896V69.0483V65.8069V62.498V59.2566V56.0153V52.7739V49.5325V46.2912V42.9147V39.6734V36.432V33.1906V29.9493V26.7079V23.3315V20.0901V16.8488V13.6074V10.366V7.12466H62.2889H59.0399H55.7909H52.5418H49.5636H46.3145H43.0655H39.8165H36.5675H33.3185H29.9341H26.685H23.436H20.187H16.938H13.689H10.4399H7.19091V10.366V13.6074V16.8488V20.0901V23.3315V26.5728V29.8142V33.0556V36.297V39.5383V42.7797V46.021V49.2624V52.5038V55.7451V58.9865V62.2279V65.4693V68.7106V71.952V75.531H7.05554Z" fill="white"/>
<path fill-rule="evenodd" clip-rule="evenodd" d="M56.1294 13.6074H59.3784V16.8488V20.0902V23.3315V26.6404V29.8818H56.1294H52.8126V26.6404H49.5636V29.8818H46.3146V33.1231H42.9979V36.3645H39.7489V39.6734H36.4999H33.2508V36.3645H29.9341V33.1231H26.6851H23.4361V36.3645H20.1194V39.6734H16.8704H13.6213V36.3645H16.8704H20.1194V33.1231H23.4361V29.8818H26.6851H29.9341V33.1231H33.2508V36.3645H36.4999H39.7489V33.1231H42.9979V29.8818H46.3146V26.6404H49.5636V23.3315H52.8126V26.6404H56.1294V23.3315V20.0902V16.8488V13.6074Z" fill="black"/>
<path fill-rule="evenodd" clip-rule="evenodd" d="M26.6851 23.3314H29.9341V26.6403H33.2508V29.8816H36.4999H39.7489V26.6403H42.9979V23.3314H46.3146V20.09H42.9979V16.8486H46.3146H49.5636H52.8126H56.1294V20.09V23.3314V26.6403H52.8126V23.3314H49.5636V26.6403H46.3146V29.8816H42.9979V33.123H39.7489V36.3644H36.4999H33.2508V33.123H29.9341V29.8816H26.6851H23.4361V33.123H20.1194V36.3644H16.8704V33.123V29.8816H20.1194V26.6403H23.4361V23.3314H26.6851Z" fill="#00FFFF"/>
<path fill-rule="evenodd" clip-rule="evenodd" d="M16.8704 33.1231V36.3645H13.6213V33.1231V29.8818H16.8704V26.6404H20.1194V23.3315H23.4361V20.0902H26.6851H29.9341V23.3315H33.2508V26.6404H36.4999H39.7489V23.3315V20.0902V16.8488V13.6074H42.9979H46.3146H49.5636H52.8126H56.1294V16.8488H52.8126H49.5636H46.3146H42.9979V20.0902H46.3146V23.3315H42.9979V26.6404H39.7489V29.8818H36.4999H33.2508V26.6404H29.9341V23.3315H26.6851H23.4361V26.6404H20.1194V29.8818H16.8704V33.1231Z" fill="#B3B3B3"/>
<path fill-rule="evenodd" clip-rule="evenodd" d="M13.6213 42.9148H16.8704V46.1562V49.3975V52.7064V55.9478V59.1892V62.498V65.7394V68.9808H13.6213V65.7394V62.498V59.1892V55.9478V52.7064V49.3975V46.1562V42.9148Z" fill="#B3B3B3"/>
<path fill-rule="evenodd" clip-rule="evenodd" d="M16.8704 42.9148H20.1194V46.1562V49.3975V52.7064V55.9478V59.1892V62.498V65.7394V68.9808H16.8704V65.7394V62.498V59.1892V55.9478V52.7064V49.3975V46.1562V42.9148Z" fill="#3600F8"/>
<path fill-rule="evenodd" clip-rule="evenodd" d="M20.1196 42.9148H23.4363V46.1562V49.3975V52.7064V55.9478V59.1892V62.498V65.7394V68.9808H20.1196V65.7394V62.498V59.1892V55.9478V52.7064V49.3975V46.1562V42.9148Z" fill="black"/>
<path fill-rule="evenodd" clip-rule="evenodd" d="M29.9343 42.9148H33.251V46.1562V49.3975V52.7064V55.9478V59.1892V62.498V65.7394V68.9808H29.9343V65.7394V62.498V59.1892V55.9478V52.7064V49.3975V46.1562V42.9148Z" fill="#B3B3B3"/>
<path fill-rule="evenodd" clip-rule="evenodd" d="M33.2507 42.9148H36.4998V46.1562V49.3975V52.7064V55.9478V59.1892V62.498V65.7394V68.9808H33.2507V65.7394V62.498V59.1892V55.9478V52.7064V49.3975V46.1562V42.9148Z" fill="#3600F8"/>
<path fill-rule="evenodd" clip-rule="evenodd" d="M36.5 42.9148H39.749V46.1562V49.3975V52.7064V55.9478V59.1892V62.498V65.7394V68.9808H36.5V65.7394V62.498V59.1892V55.9478V52.7064V49.3975V46.1562V42.9148Z" fill="black"/>
<path fill-rule="evenodd" clip-rule="evenodd" d="M46.3147 42.9148H49.5637V46.1562V49.3975V52.7064V55.9478V59.1892V62.498V65.7394V68.9808H46.3147V65.7394V62.498V59.1892V55.9478V52.7064V49.3975V46.1562V42.9148Z" fill="#B3B3B3"/>
<path fill-rule="evenodd" clip-rule="evenodd" d="M49.564 42.9148H52.813V46.1562V49.3975V52.7064V55.9478V59.1892V62.498V65.7394V68.9808H49.564V65.7394V62.498V59.1892V55.9478V52.7064V49.3975V46.1562V42.9148Z" fill="#3600F8"/>
<path fill-rule="evenodd" clip-rule="evenodd" d="M52.8127 42.9148H56.1295V46.1562V49.3975V52.7064V55.9478V59.1892V62.498V65.7394V68.9808H52.8127V65.7394V62.498V59.1892V55.9478V52.7064V49.3975V46.1562V42.9148Z" fill="black"/>
<path fill-rule="evenodd" clip-rule="evenodd" d="M0.557617 78.7723H3.80663H7.05566H10.3724H13.6214H16.8704H20.1194H23.4361H26.6852H29.9342H33.2509H36.4999H39.7489H42.9979H46.3147H49.5637H52.8127H56.1294H59.3784H62.6274H65.8765H69.1932V75.5309V72.2221V68.9807V65.7393V62.4979V59.1891V55.9477V52.7063V49.3974V46.1561V42.9147V39.6733V36.3644V33.1231V29.8817V26.6403V23.3314V20.0901V16.8487V13.6074V10.2985V7.05708V3.81573V0.506836H72.4422V3.81573V7.05708V10.2985V13.6074V16.8487V20.0901V23.3314V26.6403V29.8817V33.1231V36.3644V39.6733V42.9147V46.1561V49.3974V52.7063V55.9477V59.1891V62.4979V65.7393V68.9807V72.2221V75.5309V78.7723V82.0137H69.1932H65.8765H62.6274H59.3784H56.1294H52.8127H49.5637H46.3147H42.9979H39.7489H36.4999H33.2509H29.9342H26.6852H23.4361H20.1194H16.8704H13.6214H10.3724H7.05566H3.80663H0.557617V78.7723Z" fill="black"/>
</svg>
