<svg width="154" height="40" viewBox="0 0 154 40" fill="none" xmlns="http://www.w3.org/2000/svg">
<path fill-rule="evenodd" clip-rule="evenodd" d="M12.9126 1.29272H14.3374V2.61317H12.9126V1.29272ZM34.4037 1.29272H35.8285V2.61317H34.4037V1.29272ZM30.0995 1.29272H31.5244V2.61317H30.0995V1.29272ZM25.7954 1.29272H27.2202V2.61317H25.7954V1.29272ZM21.5209 1.29272H22.9457V2.61317H21.5209V1.29272ZM17.2168 1.29272H18.6416V2.61317H17.2168V1.29272Z" fill="black"/>
<path fill-rule="evenodd" clip-rule="evenodd" d="M37.2827 2.64087H38.7076V3.96132H37.2827V5.28176V6.6022H35.8282V7.95016V9.27061H34.4034V10.591V11.9115H32.9786V13.2595V14.5799H31.5241V15.9003V17.2483H30.0992V18.5687V19.8892H28.6744V21.2096V22.5576H27.2496V23.878V25.1985H25.7951H24.3703H22.9454H21.5206H20.0661H18.6413H17.2165H15.762H14.3371H12.9123H11.4875H10.033H8.60815H7.18332H5.7585H4.30399H2.87917H1.45435V23.878H2.87917H4.30399H5.7585H7.18332H8.60815H10.033H11.4875H12.9123H14.3371H15.762H17.2165H18.6413H20.0661H21.5206H22.9454H24.3703H25.7951V22.5576H27.2496V21.2096V19.8892H28.6744V18.5687V17.2483H30.0992V15.9003V14.5799H31.5241V13.2595V11.9115H32.9786V10.591V9.27061H34.4034V7.95016V6.6022H35.8282V5.28176V3.96132H37.2827V2.64087Z" fill="#4A7E7C"/>
<path fill-rule="evenodd" clip-rule="evenodd" d="M17.2166 7.95016H15.7917H14.3669V9.27061H15.7917H17.2166H18.6414H20.0662H21.491H22.9159H24.3407H25.7655H27.1903H28.6152V7.95016H27.2497H25.8249H24.4H22.9752H21.5504H20.1256H18.6414H17.2166ZM35.8283 2.64087H37.2531V3.96132H35.8283V5.28176V6.6022H34.4035V7.92265V9.2431H32.9787V10.5635V11.884H31.5538V13.2044V14.5249H30.129V15.8453V17.1658H28.7042V18.4862V19.8067H27.2497V21.1271V22.4476H25.8249V23.768H24.4H22.9752H21.5504H20.1256H18.6414H17.2166H15.7917H14.3669H12.9421H11.5173H10.0331H8.60825H7.18343H5.7586H4.33378H2.90896H1.48413V22.4476V21.1271H2.90896V19.8067V18.4862H4.33378V17.1658V15.8453H5.7586V14.5249V13.2044H7.18343V11.884V10.5635H8.60825V9.2431V7.92265H10.0331V6.6022V5.28176H11.4579V3.96132V2.64087H12.8827V3.96132H14.3075V2.64087H15.7324H17.1572V3.96132H18.582V2.64087H20.0068H21.4317V3.96132H22.8565V2.64087H24.2813H25.7061V3.96132H27.131V2.64087H28.5558H29.9806V3.96132H31.4054V2.64087H32.8303H34.2551V3.96132H35.6799V2.64087H35.8283ZM27.2497 11.9115V10.591H25.8249H24.4H22.9752H21.5504H20.1256H18.6414H17.2166H15.7917H14.3669H12.9421V11.9115H14.3669H15.7917H17.2166H18.6414H20.0662H21.491H22.9159H24.3407H25.7655H27.2497Z" fill="#99FFFF"/>
<path fill-rule="evenodd" clip-rule="evenodd" d="M14.3374 7.9502H15.7622H17.2167H18.6416H20.0664H21.5209H22.9457H24.3705H25.7954H27.2499H28.6747V9.27064H27.2499H25.7954H24.3705H22.9457H21.5209H20.0664H18.6416H17.2167H15.7622H14.3374V7.9502Z" fill="black"/>
<path fill-rule="evenodd" clip-rule="evenodd" d="M12.9126 10.5911H14.3374H15.7622H17.2168H18.6416H20.0664H21.5209H22.9457H24.3706H25.7954H27.2499V11.9115H25.7954H24.3706H22.9457H21.5209H20.0664H18.6416H17.2168H15.7622H14.3374H12.9126V10.5911Z" fill="black"/>
<path fill-rule="evenodd" clip-rule="evenodd" d="M0 21.2097H1.42482V19.8892V18.5688H2.84965V17.2483V15.9279H4.27447V14.6074V13.287H5.6993V11.9665V10.6461H7.12412V9.32565V8.0052H8.54894V6.68476V5.36431H9.97377V4.04387V2.64089H11.3986V1.32045H12.8234V0H14.2482H15.6731V1.32045H17.0979V0H18.5227H19.9475V1.32045H21.3724V0H22.7972H24.222V1.32045H25.6468V0H27.0716H28.4965V1.32045H29.9213V0H31.3461H32.7709V1.32045H34.1958V0H35.6206H37.0454V1.32045H38.4702H39.8951V2.64089H41.3199V3.96134H39.8951H38.4702V5.28179V6.60223H37.0454V7.92267V9.24312H35.6206V10.5636V11.884H34.1958V13.2045V14.5249H32.7709V15.8453V17.1658H31.3461V18.4862V19.8067H29.9213V21.1271V22.4476H28.4965V23.768V25.0885H27.2498V23.768V22.4476H28.6746V21.1271V19.8067H30.0994V18.4862V17.1658H31.5242V15.8453V14.5249H32.949V13.2045V11.884H34.3739V10.5636V9.24312H35.7987V7.92267V6.60223H37.2235V5.28179V3.96134H38.6483V2.64089H37.2235H35.7987V3.96134H34.3739V2.64089H32.949H31.5242V3.96134H30.0994V2.64089H28.6746H27.2498V3.96134H25.8249V2.64089H24.4001H22.9753V3.96134H21.5505V2.64089H20.1256H18.6414V3.96134H17.2166V2.64089H15.7918H14.367V3.96134H12.9422V2.64089H11.5173V3.96134V5.28179H10.0331V6.60223V7.92267H8.60831V9.24312V10.5636H7.18349V11.884V13.2045H5.75866V14.5249V15.8453H4.33384V17.1658V18.4862H2.90902V19.8067V21.1271H1.48419V22.4476V23.768V25.0885H0.059369V23.768V22.4476V21.2097H0ZM35.8284 2.64089V1.32045H34.4036V2.64089H35.8284ZM31.5242 2.64089V1.32045H30.0994V2.64089H31.5242ZM27.2498 2.64089V1.32045H25.8249V2.64089H27.2498ZM22.9456 2.64089V1.32045H21.5208V2.64089H22.9456ZM18.6414 2.64089V1.32045H17.2166V2.64089H18.6414ZM14.3373 2.64089V1.32045H12.9125V2.64089H14.3373Z" fill="black"/>
<path fill-rule="evenodd" clip-rule="evenodd" d="M1.45435 25.1985H2.87917H4.30399H5.7585H7.18332H8.60815H10.033H11.4875H12.9123H14.3371H15.762H17.2165H18.6413H20.0661H21.5206H22.9454H24.3703H25.7951H27.2496V26.5189H25.7951H24.3703H22.9454H21.5206H20.0661H18.6413H17.2165H15.762H14.3371H12.9123H11.4875H10.033H8.60815H7.18332H5.7585H4.30399H2.87917H1.45435V25.1985Z" fill="black"/>
<path fill-rule="evenodd" clip-rule="evenodd" d="M12.9126 31.8283H14.3374H15.7622H17.1871H18.6119H20.0367H21.4615H22.8864H24.3112H25.736H27.1608H28.5857H30.0105H31.4353H32.8601H34.285H35.7098H37.1346H38.5594V33.1488H37.1346H35.7098H34.285H32.8601H31.4353H30.0105H28.5857H27.2499H25.8251H24.4002H22.9754H21.5506H20.1258H18.6416H17.2168H15.7919H14.3671H12.9423V31.8283H12.9126ZM12.9126 27.867H14.3374H15.7622H17.1871H18.6119H20.0367H21.4615H22.8864H24.3112H25.736H27.1608H28.5857H30.0105H31.4353H32.8601H34.285H35.7098H37.1346H38.5594V29.1875H37.1346H35.7098H34.285H32.8601H31.4353H30.0105H28.5857H27.2499H25.8251H24.4002H22.9754H21.5506H20.1258H18.6416H17.2168H15.7919H14.3671H12.9423V27.867H12.9126ZM34.4037 11.9116H35.8285H37.2533H38.6782V13.2321H37.2533H35.8285H34.4037V11.9116ZM32.9789 15.9005H34.4037H35.8285H37.2533H38.6782V17.2209H37.2533H35.8285H34.4037H32.9789V15.9005ZM28.6747 23.8782H30.0995H31.5244H32.9492H34.374H35.7988H37.2237H38.6485V25.1986H37.2237H35.7988H34.374H32.9492H31.5244H30.0995H28.6747V23.8782ZM30.0995 19.8893H31.5244H32.9492H34.374H35.7988H37.2237H38.6485V21.2098H37.2237H35.7988H34.374H32.9492H31.5244H30.0995V19.8893Z" fill="#808080"/>
<path fill-rule="evenodd" clip-rule="evenodd" d="M12.9126 33.1761H14.3374H15.7622H17.1871H18.6119H20.0367H21.4615H22.8864H24.3112H25.736H27.1608H28.5857V34.4966H27.2499H25.8251H24.4002H22.9754H21.5506H20.1258H18.6416H17.2168H15.7919H14.3671H12.9423V33.1761H12.9126ZM40.1327 34.4966V35.817H38.7078V37.1374H37.283H35.8582H34.4334H33.0085H31.5837H30.1589H28.7341H27.2499H25.8251H24.4002H22.9754H21.5506H20.1258H18.6416H17.2168H15.7919H14.3671V35.817H15.7919H17.2168H18.6416H20.0664H21.4912H22.916H24.3409H25.7657H27.1905H28.6153H30.0402H31.465H32.8898H34.3146H35.7395H37.1643V34.4966H38.5891V33.1761V31.8557V30.5352V29.2148V27.8943V26.5739V25.1984V23.878V22.5575V21.2371V19.9166V18.5962V17.2757V15.9553V14.6349V13.3144V11.994H37.1643H35.7395V10.6735V9.35307H37.1643V8.03263V6.71218H38.5891V5.39174V4.07129H40.0139V5.39174V6.71218V8.03263V9.35307V10.6735V11.994V13.3144V14.6349V15.9553V17.2757V18.5962V19.9166V21.2371V22.5575V23.878V25.1984V26.5189V27.8393V29.1598V30.4802V31.8006V33.1211V34.4966H40.1327ZM34.4037 13.2594H35.8285H37.2533V14.5798V15.9003H35.8285H34.4037H32.9789V14.5798H34.4037V13.2594ZM31.5244 17.2482H32.9492H34.374H35.7988V18.5687V19.8891H34.374H32.9492H31.5244V18.5687V17.2482ZM30.0995 21.2096H31.5244H32.9492H34.374V22.53V23.8505H32.9492H31.5244H30.0995H28.6747V22.53H30.0995V21.2096ZM27.2499 25.1984H28.6747H30.0995H31.5244H32.9492V26.5189V27.8393H31.5244H30.0995H28.6747H27.2499H25.8251H24.4002H22.9754H21.5506H20.1258H18.6416H17.2168H15.7919H14.3671H12.9423V26.5189H14.3671H15.7919H17.2168H18.6416H20.0664H21.4912H22.916H24.3409H25.7657H27.1905V25.1984H27.2499ZM12.9126 29.1873H14.3374H15.7622H17.1871H18.6119H20.0367H21.4615H22.8864H24.3112H25.736H27.1608H28.5857H30.0105H31.4353V30.5077V31.8282H30.0105H28.5857H27.2499H25.8251H24.4002H22.9754H21.5506H20.1258H18.6416H17.2168H15.7919H14.3671H12.9423V30.5077C12.9126 30.5077 12.9126 29.1873 12.9126 29.1873Z" fill="white"/>
<path fill-rule="evenodd" clip-rule="evenodd" d="M31.5242 33.1762H32.949H34.3739H35.7987H37.2235H38.6483V34.4967H37.2235V35.8171H35.7987H34.3739H32.949H31.5242H30.0994H28.6746H27.2497H25.8249H24.4001H22.9753H21.5504H20.1256H18.6414H17.2166H15.7918H14.367H12.9421V34.4967H14.367H15.7918H17.2166H18.6414H20.0663H21.4911H22.9159H24.3407H25.7656H27.1904H28.6152V33.1762H30.04H31.5242ZM37.2829 13.2595H38.7077V14.58V15.9004H37.2829V14.58V13.2595ZM35.8284 17.2484H37.2532H38.678V18.5688V19.8893H37.2532H35.8284V18.5688V17.2484ZM34.4035 21.2097H35.8284H37.2532H38.678V22.5301V23.8506H37.2532H35.8284H34.4035V22.5301V21.2097ZM37.2829 25.1985H38.7077V26.519V27.8394H37.2829H35.8581H34.4332H33.0084V26.519V25.1985H34.4332H35.8581H37.2829ZM37.2829 29.1874H38.7077V30.5078V31.8283H37.2829H35.8581H34.4332H33.0084H31.5836V30.5078V29.1874H33.0084H34.4332H35.8581H37.2829Z" fill="black"/>
<path fill-rule="evenodd" clip-rule="evenodd" d="M41.5574 35.8169V37.1649H40.1326V38.4853H38.7078H37.283H35.8285H34.4036H32.9788H31.5243H30.0995H28.6747H27.2498H25.7953H24.3705H22.9457H21.5209H20.0664H18.6415H17.2167H15.7622V37.1649H17.2167H18.6415H20.0664H21.5209H22.9457H24.3705H25.7953H27.2498H28.6747H30.0995H31.5243H32.9788H34.4036H35.8285H37.283H38.7078V35.8169H40.1326V34.4965V33.176V31.8281V30.5076V29.1872V27.8667V26.5188V25.1983V23.8779V22.5575V21.2095V19.8891V18.5686V17.2482V15.9002V14.5798V13.2593V11.9114V10.5909V9.27047V7.95003V6.60207V5.28163V3.96118H41.5574V5.28163V6.60207V7.95003V9.27047V10.5909V11.9114V13.2593V14.5798V15.9002V17.2482V18.5686V19.8891V21.2095V22.5575V23.8779V25.1983V26.5188V27.8667V29.1872V30.5076V31.8281V33.176V34.4965V35.8169Z" fill="#808080"/>
<path fill-rule="evenodd" clip-rule="evenodd" d="M15.7623 38.4853H17.2168H18.6416H20.0664H21.5209H22.9457H24.3706H25.7954H27.2499H28.6747H30.0996H31.5244H32.9789H34.4037H35.8285H37.283H38.7079H40.1327V37.1649H41.5575V35.8169V34.4965V33.176V31.8281V30.5076V29.1872V27.8667V26.5188V25.1983V23.8779V22.5575V21.2095V19.8891V18.5686V17.2482V15.9002V14.5798V13.2593V11.9114V10.5909V9.27047V7.95003V6.60207V5.28163V3.96118H43.012V5.28163V6.60207V7.95003V9.27047V10.5909V11.9114V13.2593V14.5798V15.9002V17.2482V18.5686V19.8891V21.2095V22.5575V23.8779V25.1983V26.5188V27.8667V29.1872V30.5076V31.8281V33.176V34.4965V35.8169V37.1649H41.5575V38.4853H40.1327V39.8058H38.7079H37.283H35.8285H34.4037H32.9789H31.5244H30.0996H28.6747H27.2499H25.7954H24.3706H22.9457H21.5209H20.0664H18.6416H17.2168H15.7623V38.4853H14.3374V37.1649H12.9126V35.8169H11.4878V34.4965V33.176V31.8281V30.5076V29.1872V27.8667V26.5188H12.9126V27.8667V29.1872V30.5076V31.8281V33.176V34.4965V35.8169H14.3374V37.1649H15.7623V38.4853Z" fill="black"/>
<path d="M77.15 25.9235V21.2324H74.5912V25.9235H77.15ZM69.5588 11.7706V7.07952H67V28.3089H69.5588V16.5413H72.1176V11.8502H69.5588V11.7706ZM79.6235 21.2324V16.5413H77.0647V21.2324H79.6235ZM82.1824 7.07952V11.7706H79.6235V16.4618H82.1824V28.2294H84.7412V7H82.1824V7.07952ZM74.5912 21.2324V16.5413H72.0324V21.2324H74.5912ZM98.3029 23.6177V14.156H95.7441V23.6177H98.3029ZM90.7118 30.6942H93.2706V26.0031H95.8294V23.6177H90.7971V30.6942H90.7118ZM90.7118 33V30.6147H85.6794V33H90.7118ZM90.7118 23.6177V14.156H88.1529V23.6177H90.7118ZM104.018 14.156H101.459V28.3089H104.018V18.8471H106.576V16.4618H104.018V14.156ZM114.168 28.3089V16.5413H111.609V28.3089H114.168ZM111.609 16.5413V14.156H106.576V16.5413H111.609ZM127.388 28.3089V25.9235H119.797V28.3089H127.388ZM119.797 25.9235V16.4618H117.238V25.9235H119.797ZM127.388 16.5413V14.156H119.797V16.5413H127.388ZM129.947 25.9235V16.4618H127.388V25.9235H129.947ZM138.221 16.5413V14.156H135.662V9.46484H133.103V26.0031H135.662V16.5413H138.221ZM138.221 28.3089V25.9235H135.662V28.3089H138.221ZM151.441 28.3089V25.9235H143.85V28.3089H151.441ZM154 25.9235V23.5382H151.441V25.9235H154ZM151.441 16.5413V14.156H143.85V16.5413H151.441ZM154 21.2324V16.5413H151.441V18.9266H143.85V16.5413H141.291V26.0031H143.85V21.3119H154V21.2324Z" fill="black"/>
</svg>
