<svg width="18" height="16" viewBox="0 0 18 16" fill="none" xmlns="http://www.w3.org/2000/svg">
<path fill-rule="evenodd" clip-rule="evenodd" d="M5.19019 0.519775H5.76289V1.05053H5.19019V0.519775ZM13.8285 0.519775H14.4013V1.05053H13.8285V0.519775ZM12.0985 0.519775H12.6712V1.05053H12.0985V0.519775ZM10.3684 0.519775H10.9411V1.05053H10.3684V0.519775ZM8.6503 0.519775H9.22301V1.05053H8.6503V0.519775ZM6.92024 0.519775H7.49295V1.05053H6.92024V0.519775Z" fill="black"/>
<path fill-rule="evenodd" clip-rule="evenodd" d="M14.9857 1.06152H15.5584V1.59228H14.9857V2.12303V2.65379H14.4011V3.1956V3.72635H13.8284V4.25711V4.78786H13.2557V5.32967V5.86043H12.671V6.39118V6.93299H12.0983V7.46375V7.9945H11.5256V8.52526V9.06707H10.9529V9.59782V10.1286H10.3683H9.79554H9.22284H8.65013H8.06549H7.49278H6.92007H6.33543H5.76272H5.19001H4.6173H4.03266H3.45995H2.88724H2.31453H1.72989H1.15718H0.584473V9.59782H1.15718H1.72989H2.31453H2.88724H3.45995H4.03266H4.6173H5.19001H5.76272H6.33543H6.92007H7.49278H8.06549H8.65013H9.22284H9.79554H10.3683V9.06707H10.9529V8.52526V7.9945H11.5256V7.46375V6.93299H12.0983V6.39118V5.86043H12.671V5.32967V4.78786H13.2557V4.25711V3.72635H13.8284V3.1956V2.65379H14.4011V2.12303V1.59228H14.9857V1.06152Z" fill="#4A7E7C"/>
<path fill-rule="evenodd" clip-rule="evenodd" d="M6.9201 3.1956H6.34739H5.77468V3.72635H6.34739H6.9201H7.49281H8.06552H8.63823H9.21093H9.78364H10.3564H10.9291H11.5018V3.1956H10.9529H10.3802H9.80751H9.2348H8.66209H8.08938H7.49281H6.9201ZM14.4011 1.06152H14.9738V1.59228H14.4011V2.12303V2.65379H13.8284V3.18454V3.71529H13.2557V4.24605V4.7768H12.683V5.30756V5.83831H12.1103V6.36907V6.89982H11.5376V7.43057V7.96133H10.9529V8.49208V9.02284H10.3802V9.55359H9.80751H9.2348H8.66209H8.08938H7.49281H6.9201H6.34739H5.77468H5.20197H4.62926H4.03269H3.45998H2.88727H2.31456H1.74185H1.16914H0.596436V9.02284V8.49208H1.16914V7.96133V7.43057H1.74185V6.89982V6.36907H2.31456V5.83831V5.30756H2.88727V4.7768V4.24605H3.45998V3.71529V3.18454H4.03269V2.65379V2.12303H4.6054V1.59228V1.06152H5.17811V1.59228H5.75082V1.06152H6.32353H6.89624V1.59228H7.46895V1.06152H8.04166H8.61436V1.59228H9.18707V1.06152H9.75978H10.3325V1.59228H10.9052V1.06152H11.4779H12.0506V1.59228H12.6233V1.06152H13.196H13.7687V1.59228H14.3415V1.06152H14.4011ZM10.9529 4.78786V4.25711H10.3802H9.80751H9.2348H8.66209H8.08938H7.49281H6.9201H6.34739H5.77468H5.20197V4.78786H5.77468H6.34739H6.9201H7.49281H8.06552H8.63823H9.21093H9.78364H10.3564H10.9529Z" fill="white"/>
<path fill-rule="evenodd" clip-rule="evenodd" d="M5.76294 3.19556H6.33565H6.92029H7.493H8.06571H8.65035H9.22306H9.79577H10.3685H10.9531H11.5258V3.72631H10.9531H10.3685H9.79577H9.22306H8.65035H8.06571H7.493H6.92029H6.33565H5.76294V3.19556Z" fill="black"/>
<path fill-rule="evenodd" clip-rule="evenodd" d="M5.19019 4.25708H5.76289H6.3356H6.92024H7.49295H8.06566H8.6503H9.22301H9.79572H10.3684H10.9531V4.78783H10.3684H9.79572H9.22301H8.6503H8.06566H7.49295H6.92024H6.3356H5.76289H5.19019V4.25708Z" fill="black"/>
<path fill-rule="evenodd" clip-rule="evenodd" d="M0 8.52524H0.57271V7.99449V7.46373H1.14542V6.93298V6.40222H1.71813V5.87147V5.34071H2.29084V4.80996V4.27921H2.86355V3.74845V3.2177H3.43626V2.68694V2.15619H4.00896V1.62544V1.06151H4.58167V0.530755H5.15438V0H5.72709H6.2998V0.530755H6.87251V0H7.44522H8.01793V0.530755H8.59064V0H9.16335H9.73606V0.530755H10.3088V0H10.8815H11.4542V0.530755H12.0269V0H12.5996H13.1723V0.530755H13.745V0H14.3177H14.8904V0.530755H15.4631H16.0359V1.06151H16.6086V1.59226H16.0359H15.4631V2.12302V2.65377H14.8904V3.18453V3.71528H14.3177V4.24604V4.77679H13.745V5.30754V5.8383H13.1723V6.36905V6.89981H12.5996V7.43056V7.96131H12.0269V8.49207V9.02282H11.4542V9.55358V10.0843H10.9531V9.55358V9.02282H11.5258V8.49207V7.96131H12.0985V7.43056V6.89981H12.6712V6.36905V5.8383H13.2439V5.30754V4.77679H13.8166V4.24604V3.71528H14.3893V3.18453V2.65377H14.962V2.12302V1.59226H15.5347V1.06151H14.962H14.3893V1.59226H13.8166V1.06151H13.2439H12.6712V1.59226H12.0985V1.06151H11.5258H10.9531V1.59226H10.3804V1.06151H9.80764H9.23494V1.59226H8.66223V1.06151H8.08952H7.49294V1.59226H6.92024V1.06151H6.34753H5.77482V1.59226H5.20211V1.06151H4.6294V1.59226V2.12302H4.03283V2.65377V3.18453H3.46012V3.71528V4.24604H2.88741V4.77679V5.30754H2.3147V5.8383V6.36905H1.74199V6.89981V7.43056H1.16928V7.96131V8.49207H0.596572V9.02282V9.55358V10.0843H0.0238634V9.55358V9.02282V8.52524H0ZM14.4012 1.06151V0.530755H13.8285V1.06151H14.4012ZM12.6712 1.06151V0.530755H12.0985V1.06151H12.6712ZM10.9531 1.06151V0.530755H10.3804V1.06151H10.9531ZM9.223 1.06151V0.530755H8.65029V1.06151H9.223ZM7.49294 1.06151V0.530755H6.92024V1.06151H7.49294ZM5.76289 1.06151V0.530755H5.19018V1.06151H5.76289Z" fill="black"/>
<path fill-rule="evenodd" clip-rule="evenodd" d="M0.584473 10.1287H1.15718H1.72989H2.31453H2.88724H3.45995H4.03266H4.6173H5.19001H5.76272H6.33543H6.92007H7.49278H8.06549H8.65013H9.22284H9.79554H10.3683H10.9529V10.6594H10.3683H9.79554H9.22284H8.65013H8.06549H7.49278H6.92007H6.33543H5.76272H5.19001H4.6173H4.03266H3.45995H2.88724H2.31453H1.72989H1.15718H0.584473V10.1287Z" fill="black"/>
<path fill-rule="evenodd" clip-rule="evenodd" d="M5.19019 12.7934H5.76289H6.3356H6.90831H7.48102H8.05373H8.62644H9.19915H9.77186H10.3446H10.9173H11.49H12.0627H12.6354H13.2081H13.7808H14.3535H14.9262H15.499V13.3241H14.9262H14.3535H13.7808H13.2081H12.6354H12.0627H11.49H10.9531H10.3804H9.80765H9.23494H8.66224H8.08953H7.49295H6.92024H6.34754H5.77483H5.20212V12.7934H5.19019ZM5.19019 11.2011H5.76289H6.3356H6.90831H7.48102H8.05373H8.62644H9.19915H9.77186H10.3446H10.9173H11.49H12.0627H12.6354H13.2081H13.7808H14.3535H14.9262H15.499V11.7319H14.9262H14.3535H13.7808H13.2081H12.6354H12.0627H11.49H10.9531H10.3804H9.80765H9.23494H8.66224H8.08953H7.49295H6.92024H6.34754H5.77483H5.20212V11.2011H5.19019ZM13.8285 4.78784H14.4013H14.974H15.5467V5.3186H14.974H14.4013H13.8285V4.78784ZM13.2558 6.39116H13.8285H14.4013H14.974H15.5467V6.92192H14.974H14.4013H13.8285H13.2558V6.39116ZM11.5258 9.5978H12.0985H12.6712H13.2439H13.8166H14.3893H14.962H15.5347V10.1286H14.962H14.3893H13.8166H13.2439H12.6712H12.0985H11.5258V9.5978ZM12.0985 7.99448H12.6712H13.2439H13.8166H14.3893H14.962H15.5347V8.52524H14.962H14.3893H13.8166H13.2439H12.6712H12.0985V7.99448Z" fill="#808080"/>
<path fill-rule="evenodd" clip-rule="evenodd" d="M5.19019 13.3352H5.76289H6.3356H6.90831H7.48102H8.05373H8.62644H9.19915H9.77186H10.3446H10.9173H11.49V13.8659H10.9531H10.3804H9.80765H9.23494H8.66224H8.08953H7.49295H6.92024H6.34754H5.77483H5.20212V13.3352H5.19019ZM16.1313 13.8659V14.3967H15.5586V14.9274H14.9859H14.4132H13.8405H13.2678H12.6951H12.1224H11.5496H10.9531H10.3804H9.80765H9.23494H8.66224H8.08953H7.49295H6.92024H6.34754H5.77483V14.3967H6.34754H6.92024H7.49295H8.06566H8.63837H9.21108H9.78379H10.3565H10.9292H11.5019H12.0746H12.6473H13.22H13.7928H14.3655H14.9382V13.8659H15.5109V13.3352V12.8044V12.2737V11.7429V11.2122V10.6814V10.1285V9.59779V9.06703V8.53628V8.00553V7.47477V6.94402V6.41326V5.88251V5.35175V4.821H14.9382H14.3655V4.29025V3.75949H14.9382V3.22874V2.69798H15.5109V2.16723V1.63647H16.0836V2.16723V2.69798V3.22874V3.75949V4.29025V4.821V5.35175V5.88251V6.41326V6.94402V7.47477V8.00553V8.53628V9.06703V9.59779V10.1285V10.6593V11.1901V11.7208V12.2516V12.7823V13.3131V13.8659H16.1313ZM13.8285 5.32964H14.4013H14.974V5.86039V6.39115H14.4013H13.8285H13.2558V5.86039H13.8285V5.32964ZM12.6712 6.93296H13.2439H13.8166H14.3893V7.46371V7.99447H13.8166H13.2439H12.6712V7.46371V6.93296ZM12.0985 8.52522H12.6712H13.2439H13.8166V9.05598V9.58673H13.2439H12.6712H12.0985H11.5258V9.05598H12.0985V8.52522ZM10.9531 10.1285H11.5258H12.0985H12.6712H13.2439V10.6593V11.1901H12.6712H12.0985H11.5258H10.9531H10.3804H9.80765H9.23494H8.66224H8.08953H7.49295H6.92024H6.34754H5.77483H5.20212V10.6593H5.77483H6.34754H6.92024H7.49295H8.06566H8.63837H9.21108H9.78379H10.3565H10.9292V10.1285H10.9531ZM5.19019 11.7319H5.76289H6.3356H6.90831H7.48102H8.05373H8.62644H9.19915H9.77186H10.3446H10.9173H11.49H12.0627H12.6354V12.2626V12.7934H12.0627H11.49H10.9531H10.3804H9.80765H9.23494H8.66224H8.08953H7.49295H6.92024H6.34754H5.77483H5.20212V12.2626C5.19019 12.2626 5.19019 11.7319 5.19019 11.7319Z" fill="white"/>
<path fill-rule="evenodd" clip-rule="evenodd" d="M12.6712 13.3351H13.2439H13.8166H14.3894H14.9621H15.5348V13.8659H14.9621V14.3966H14.3894H13.8166H13.2439H12.6712H12.0985H11.5258H10.9531H10.3804H9.80768H9.23497H8.66227H8.08956H7.49298H6.92027H6.34757H5.77486H5.20215V13.8659H5.77486H6.34757H6.92027H7.49298H8.06569H8.6384H9.21111H9.78382H10.3565H10.9292H11.5019V13.3351H12.0747H12.6712ZM14.9859 5.32959H15.5586V5.86034V6.3911H14.9859V5.86034V5.32959ZM14.4013 6.93291H14.974H15.5467V7.46366V7.99442H14.974H14.4013V7.46366V6.93291ZM13.8286 8.52517H14.4013H14.974H15.5467V9.05593V9.58668H14.974H14.4013H13.8286V9.05593V8.52517ZM14.9859 10.1285H15.5586V10.6592V11.19H14.9859H14.4132H13.8405H13.2678V10.6592V10.1285H13.8405H14.4132H14.9859ZM14.9859 11.7318H15.5586V12.2626V12.7933H14.9859H14.4132H13.8405H13.2678H12.6951V12.2626V11.7318H13.2678H13.8405H14.4132H14.9859Z" fill="black"/>
<path fill-rule="evenodd" clip-rule="evenodd" d="M16.7041 14.3967V14.9385H16.1314V15.4693H15.5587H14.986H14.4013H13.8286H13.2559H12.6713H12.0986H11.5259H10.9532H10.3685H9.79581H9.2231H8.65039H8.06575H7.49304H6.92033H6.33569V14.9385H6.92033H7.49304H8.06575H8.65039H9.2231H9.79581H10.3685H10.9532H11.5259H12.0986H12.6713H13.2559H13.8286H14.4013H14.986H15.5587V14.3967H16.1314V13.866V13.3352V12.7934V12.2627V11.7319V11.2011V10.6593V10.1286V9.59783V9.06707V8.52526V7.99451V7.46375V6.933V6.39119V5.86043V5.32968V4.78787V4.25711V3.72636V3.19561V2.65379V2.12304V1.59229H16.7041V2.12304V2.65379V3.19561V3.72636V4.25711V4.78787V5.32968V5.86043V6.39119V6.933V7.46375V7.99451V8.52526V9.06707V9.59783V10.1286V10.6593V11.2011V11.7319V12.2627V12.7934V13.3352V13.866V14.3967Z" fill="#808080"/>
<path fill-rule="evenodd" clip-rule="evenodd" d="M6.33556 15.4693H6.9202H7.49291H8.06562H8.65026H9.22297H9.79568H10.3684H10.953H11.5257H12.0984H12.6712H13.2558H13.8285H14.4012H14.9859H15.5586H16.1313V14.9385H16.704V14.3967V13.866V13.3352V12.7934V12.2627V11.7319V11.2011V10.6593V10.1286V9.59783V9.06707V8.52526V7.99451V7.46375V6.933V6.39119V5.86043V5.32968V4.78787V4.25711V3.72636V3.19561V2.65379V2.12304V1.59229H17.2886V2.12304V2.65379V3.19561V3.72636V4.25711V4.78787V5.32968V5.86043V6.39119V6.933V7.46375V7.99451V8.52526V9.06707V9.59783V10.1286V10.6593V11.2011V11.7319V12.2627V12.7934V13.3352V13.866V14.3967V14.9385H16.704V15.4693H16.1313V16.0001H15.5586H14.9859H14.4012H13.8285H13.2558H12.6712H12.0984H11.5257H10.953H10.3684H9.79568H9.22297H8.65026H8.06562H7.49291H6.9202H6.33556V15.4693H5.76285V14.9385H5.19014V14.3967H4.61743V13.866V13.3352V12.7934V12.2627V11.7319V11.2011V10.6593H5.19014V11.2011V11.7319V12.2627V12.7934V13.3352V13.866V14.3967H5.76285V14.9385H6.33556V15.4693Z" fill="black"/>
</svg>
